<svg width="576" height="797" viewBox="0 0 576 797" fill="none" xmlns="http://www.w3.org/2000/svg">
<path d="M407.917 777.871C444.563 761.969 476.28 724.05 502.606 667.864C525.831 618.235 544.311 555.4 557.142 485.786C568.588 423.709 575.049 358.62 575.806 302.397C576.545 248.317 571.874 206.815 562.865 188.493C558.176 178.944 552.526 173.274 545.64 170.946C539.271 168.785 531.776 169.469 522.489 172.756C514.643 175.527 505.874 179.978 492.859 187.477L484.385 192.427L475.468 197.691C467.899 202.124 462.157 205.448 456.268 208.699C437.862 218.895 421.32 226.744 404.188 232.969C383.916 240.478 362.72 245.2 341.179 247.006C316.094 248.941 290.863 246.757 266.483 240.541C238.366 233.523 209.363 221.296 179.326 203.324C124.274 170.429 80.6679 165.701 49.8003 186.443C21.9603 205.171 5.3818 244.309 1.09872 297.374C-2.96282 347.594 4.32949 407.824 21.4249 466.67C39.111 527.455 66.1387 583.179 99.0926 624.792C167.142 710.751 219.997 759.845 268.089 781.916C291.536 792.684 314.243 797.246 337.653 796.101C359.548 795.03 382.256 789.009 407.917 777.871Z" fill="url(#paint0_linear)"/>
<path d="M133.468 303.413C22.7913 256.407 21.4067 35.9674 76.6067 6.52615C121.653 -17.5218 132.287 27.3234 163.727 101.093C193.228 170.318 284.484 195.05 327.111 173.273C351.979 160.548 395.087 95.2007 477.757 95.2007C499.634 95.2007 551.271 128.077 530.816 150.223C466.404 219.947 217.468 339.097 133.468 303.413Z" fill="url(#paint1_linear)"/>
<path d="M522.046 115.869C452.926 49.0072 371.788 171.851 337.856 190.949C267.628 230.42 169.837 166.384 146.114 97.0477C130.957 52.7381 113.843 -3.79859 67.5788 27.1941C21.3142 58.1868 43.8003 215.681 67.5788 293.827C79.5049 333.058 202.57 571.986 366.748 572.466C431.179 572.651 480.009 461.461 501.499 374.892C522.969 288.305 570.249 162.487 522.046 115.869Z" fill="url(#paint2_linear)"/>
<path d="M488.723 431.189C405.462 698.801 229.911 574.479 115.726 395.689C42.3971 280.88 35.1971 130.183 121.856 130.183C153.425 130.183 226.533 254.191 342.416 199.612C380.502 181.659 451.265 70.063 511.874 122.37C557.954 162.136 540.914 263.481 488.742 431.189H488.723Z" fill="url(#paint3_linear)"/>
<path opacity="0.4" d="M315.905 228.166C342.859 220.298 348.84 252.953 364.126 286.421C528.582 646.475 289.413 585.451 227.991 496.739C185.843 435.862 327.831 398.165 296.52 294.732C288.083 266.861 288.951 236.035 315.905 228.166Z" fill="url(#paint4_linear)"/>
<path opacity="0.6" d="M325.376 282.45C338.262 271.368 351.406 289.468 354.231 303.136C357.849 320.646 453.702 529.357 346.237 495.151C238.791 460.963 326.723 397.998 329.437 367.929C332.668 332.245 305.326 299.664 325.376 282.45Z" fill="url(#paint5_linear)"/>
<path d="M350.003 347.871C356.428 345.58 382.311 435.474 372.545 469.957C367.246 488.649 318.157 454.202 320.89 442.178C323.622 430.136 338.133 436.139 346.477 417.613C354.139 400.566 340.57 351.232 350.003 347.871Z" fill="url(#paint6_linear)"/>
<path opacity="0.7" d="M276.434 321.625C260.41 440.978 144.01 397.352 100.385 321.717C61.708 254.726 88.0895 124.402 139.283 168.933C180.157 204.506 285.683 252.787 276.434 321.625Z" fill="url(#paint7_linear)"/>
<path d="M211.228 354.354C228.028 295.564 130.828 204.192 104.742 250.774C78.6372 297.355 194.446 413.162 211.228 354.372V354.354ZM455.456 154.988C379.726 200.609 372.637 382.169 444.102 357.512C515.566 332.836 531.166 109.367 455.456 154.988Z" fill="url(#paint8_linear)"/>
<path opacity="0.8" d="M352.57 621.005C334.145 630.924 328.754 652.589 335.345 668.104C343.764 688.015 360.785 685.927 378.656 662.821C387.684 651.167 390.471 600.577 352.57 621.005Z" fill="url(#paint9_linear)"/>
<path opacity="0.6" d="M319.468 695.809C316.738 697.189 314.619 699.537 313.527 702.396C312.434 705.255 312.446 708.418 313.56 711.268C316.366 717.77 328.569 714.741 334.643 707.131C337.708 703.289 332.28 689.049 319.468 695.809Z" fill="url(#paint10_linear)"/>
<defs>
<linearGradient id="paint0_linear" x1="287.941" y1="169.701" x2="277.716" y2="620.797" gradientUnits="userSpaceOnUse">
<stop stop-color="#1B1464"/>
<stop offset="0.7" stop-color="#0E055B"/>
<stop offset="1" stop-color="#0F0F36"/>
</linearGradient>
<linearGradient id="paint1_linear" x1="62.6429" y1="19.526" x2="381.58" y2="300.694" gradientUnits="userSpaceOnUse">
<stop stop-color="#9682D2" stop-opacity="0"/>
<stop offset="1" stop-color="#9682D2" stop-opacity="0.1"/>
</linearGradient>
<linearGradient id="paint2_linear" x1="209.942" y1="530.904" x2="529.67" y2="152.875" gradientUnits="userSpaceOnUse">
<stop stop-color="#2E3191"/>
<stop offset="0.17" stop-color="#2C3594"/>
<stop offset="0.35" stop-color="#27439E"/>
<stop offset="0.54" stop-color="#1F59AF"/>
<stop offset="0.74" stop-color="#1477C6"/>
<stop offset="0.94" stop-color="#059FE3"/>
<stop offset="1" stop-color="#00ADEE"/>
</linearGradient>
<linearGradient id="paint3_linear" x1="320.803" y1="347.26" x2="828.878" y2="1595.2" gradientUnits="userSpaceOnUse">
<stop stop-color="#1B1464"/>
<stop offset="1" stop-color="#673EE0"/>
</linearGradient>
<linearGradient id="paint4_linear" x1="308.644" y1="585.384" x2="142.623" y2="426.519" gradientUnits="userSpaceOnUse">
<stop stop-color="#2057AD"/>
<stop offset="1" stop-color="#1B1464"/>
</linearGradient>
<linearGradient id="paint5_linear" x1="410.985" y1="233.492" x2="39.9529" y2="402.449" gradientUnits="userSpaceOnUse">
<stop stop-color="#2E3191"/>
<stop offset="1" stop-color="#00ADEE"/>
</linearGradient>
<linearGradient id="paint6_linear" x1="347.751" y1="347.828" x2="280.766" y2="438.316" gradientUnits="userSpaceOnUse">
<stop stop-color="#1B1464"/>
<stop offset="1" stop-color="#251880"/>
</linearGradient>
<linearGradient id="paint7_linear" x1="-35.7441" y1="39.3517" x2="322.969" y2="290.939" gradientUnits="userSpaceOnUse">
<stop stop-color="#0995DC"/>
<stop offset="1" stop-color="#3B2E91"/>
</linearGradient>
<linearGradient id="paint8_linear" x1="265.964" y1="331.176" x2="280.513" y2="184.212" gradientUnits="userSpaceOnUse">
<stop stop-color="#251880"/>
<stop offset="1" stop-color="#1B1464"/>
</linearGradient>
<linearGradient id="paint9_linear" x1="370.148" y1="653.935" x2="342.402" y2="635.185" gradientUnits="userSpaceOnUse">
<stop stop-color="#1A1D75"/>
<stop offset="1" stop-color="#322189"/>
</linearGradient>
<linearGradient id="paint10_linear" x1="320.615" y1="714.823" x2="320.615" y2="690.539" gradientUnits="userSpaceOnUse">
<stop stop-color="#10105E"/>
<stop offset="1" stop-color="#271A77"/>
</linearGradient>
</defs>
</svg>
