<svg width="505" height="593" viewBox="0 0 505 593" fill="none" xmlns="http://www.w3.org/2000/svg">
<path d="M0.646489 299.905C5.39837 207.279 104.266 187.952 142.214 172.042C197.164 148.991 206.045 109.759 221.29 57.6024C243.248 -17.5135 504.259 -81.4866 504.259 290.709C504.259 529.879 322.884 645.803 239.084 569.281C92.788 435.692 -9.12126 490.327 0.646489 299.905Z" fill="url(#paint0_linear)"/>
<path d="M19.7802 292.478C29.1855 216.905 116.429 223.832 154.85 212.401C210.407 195.833 215.923 135.918 250.625 103.506C375.332 -12.9976 456.819 150.891 441.882 252.572C418.962 408.556 324.803 577.244 245.826 503.89C167.014 430.669 0.445672 447.844 19.7802 292.478Z" fill="url(#paint1_linear)"/>
<path d="M58.1103 324.193C62.3696 255.101 135.886 257.3 166.671 244.455C230.715 217.721 278.427 85.3774 312.525 108.463C441.878 196.03 399.052 435.996 318.936 446.532C265.767 453.522 49.3512 466.233 58.1103 324.193V324.193Z" fill="url(#paint2_linear)"/>
<path d="M113.569 312.144C121.8 249.026 183.464 251.228 211.081 251.228C261.571 251.228 275.834 161.072 315.547 173.937C383.78 196.046 396.53 357.945 330.315 413.596C293.671 444.381 96.6495 441.934 113.569 312.144Z" fill="url(#paint3_linear)"/>
<path d="M142.446 330.454C148.546 286.477 195.706 279.129 214.481 288.034C254.636 307.053 335.559 362.003 298.273 386.101C270.944 403.761 129.948 420.858 142.446 330.454Z" fill="url(#paint4_linear)"/>
<path d="M174.157 337.077C177.345 314.003 202.101 310.146 211.952 314.815C233.02 324.8 278.762 343.673 257.784 372.523C246.909 387.465 167.585 384.509 174.157 337.077Z" fill="url(#paint5_linear)"/>
<defs>
<linearGradient id="paint0_linear" x1="267.411" y1="594.669" x2="237.21" y2="4.60847" gradientUnits="userSpaceOnUse">
<stop stop-color="#9682D2" stop-opacity="0"/>
<stop offset="1" stop-color="#9682D2" stop-opacity="0.1"/>
</linearGradient>
<linearGradient id="paint1_linear" x1="443.643" y1="292.447" x2="18.2317" y2="292.447" gradientUnits="userSpaceOnUse">
<stop stop-color="#F16137"/>
<stop offset="0.19" stop-color="#F16637"/>
<stop offset="0.43" stop-color="#F17637"/>
<stop offset="0.69" stop-color="#F08F36"/>
<stop offset="0.96" stop-color="#F0B236"/>
<stop offset="0.99" stop-color="#F0B636"/>
</linearGradient>
<linearGradient id="paint2_linear" x1="384.188" y1="220.205" x2="42.9789" y2="250.914" gradientUnits="userSpaceOnUse">
<stop offset="0.02" stop-color="#ED1C24"/>
<stop offset="0.22" stop-color="#F16137"/>
<stop offset="0.36" stop-color="#F16837"/>
<stop offset="0.57" stop-color="#F17B37"/>
<stop offset="0.82" stop-color="#F09B36"/>
<stop offset="0.99" stop-color="#F0B636"/>
</linearGradient>
<linearGradient id="paint3_linear" x1="373.874" y1="301.269" x2="112.54" y2="301.269" gradientUnits="userSpaceOnUse">
<stop offset="0.38" stop-color="#F48120"/>
<stop offset="1" stop-color="#FCEE21"/>
</linearGradient>
<linearGradient id="paint4_linear" x1="307.844" y1="342.444" x2="141.662" y2="342.444" gradientUnits="userSpaceOnUse">
<stop offset="0.22" stop-color="#F16137"/>
<stop offset="0.36" stop-color="#F16737"/>
<stop offset="0.56" stop-color="#F17A37"/>
<stop offset="0.79" stop-color="#F09736"/>
<stop offset="0.99" stop-color="#F0B636"/>
</linearGradient>
<linearGradient id="paint5_linear" x1="173.759" y1="346.794" x2="263.147" y2="346.794" gradientUnits="userSpaceOnUse">
<stop stop-color="#F45376"/>
<stop offset="0.43" stop-color="#F5714D"/>
<stop offset="0.89" stop-color="#F7931E"/>
<stop offset="0.99" stop-color="#F6925B"/>
</linearGradient>
</defs>
</svg>
