<svg width="635" height="807" viewBox="0 0 635 807" fill="none" xmlns="http://www.w3.org/2000/svg">
<path d="M584.664 680.205C662.812 643.386 660.962 485.138 500.086 366.901C364.613 267.335 245.276 28.9789 170.404 344.494C134.352 496.392 207.195 763.776 302.111 798.708C390.002 831.073 416.369 759.504 584.664 680.205Z" fill="url(#paint0_linear)"/>
<path d="M575.183 607.29C627.828 537.429 591.394 453.264 498.349 411.807C445.142 388.12 86.5242 10.9058 260.539 657.852C284.054 745.254 438.965 788.049 575.183 607.29V607.29Z" fill="url(#paint1_linear)"/>
<path d="M564.637 529.824C570.843 455.438 495.181 458.446 468.1 450.551C409.548 433.479 406.355 336.473 356.939 339.715C248.564 346.813 254.878 494.38 267.174 562.226C286.295 667.78 332.094 682.204 347.524 691.604C404.385 726.262 552.645 673.448 564.637 529.824V529.824Z" fill="url(#paint2_linear)"/>
<path d="M490.617 515.765C488.323 458.762 442.398 463.973 421.511 447.546C277.819 334.562 267.161 581.72 316.091 631.733C358.461 675.056 496.191 654.444 490.617 515.765Z" fill="url(#paint3_linear)"/>
<path d="M457.604 509.295C460.772 461.426 411.676 450.534 395.485 460.333C239.934 554.505 445.221 696.471 457.604 509.295Z" fill="url(#paint4_linear)"/>
<path d="M444.527 519.219C441.522 488.708 412.295 482.233 400.465 487.802C375.146 499.72 357.052 542.088 366.13 554.135C375.99 567.233 450.708 581.936 444.527 519.219Z" fill="url(#paint5_linear)"/>
<path d="M3.9539 758.614C-3.87331 771.663 0.753183 787.043 10.5549 794.129C23.1333 803.217 32.9599 795.525 35.5912 774.564C36.9172 763.992 20.0406 731.794 3.9539 758.614V758.614Z" fill="url(#paint6_linear)"/>
<path d="M243.8 117.96C268.092 110.48 256.47 84.4155 255.136 73.9099C252.247 51.22 282.338 37.5229 274.344 20.6634C256.815 -16.3221 223.295 5.03392 203.679 18.1326C173.143 38.4954 175.063 56.398 174.282 63.0138C171.406 87.4034 196.887 132.397 243.8 117.96V117.96Z" fill="url(#paint7_linear)"/>
<path d="M213.19 177.739C220.536 177.739 226.491 171.785 226.491 164.441C226.491 157.097 220.536 151.143 213.19 151.143C205.843 151.143 199.888 157.097 199.888 164.441C199.888 171.785 205.843 177.739 213.19 177.739Z" fill="url(#paint8_linear)"/>
<defs>
<linearGradient id="paint0_linear" x1="120.019" y1="490.714" x2="601.95" y2="505.937" gradientUnits="userSpaceOnUse">
<stop stop-color="#9682D2" stop-opacity="0"/>
<stop offset="1" stop-color="#9682D2" stop-opacity="0.1"/>
</linearGradient>
<linearGradient id="paint1_linear" x1="242.236" y1="493.153" x2="635.291" y2="508.879" gradientUnits="userSpaceOnUse">
<stop stop-color="#0089A4"/>
<stop offset="0.06" stop-color="#008FAF"/>
<stop offset="0.41" stop-color="#00ADEE"/>
<stop offset="0.49" stop-color="#23B5DC"/>
<stop offset="0.59" stop-color="#46BDC9"/>
<stop offset="0.69" stop-color="#61C3BB"/>
<stop offset="0.79" stop-color="#74C7B0"/>
<stop offset="0.89" stop-color="#80CAAA"/>
<stop offset="1" stop-color="#84CBA8"/>
</linearGradient>
<linearGradient id="paint2_linear" x1="296.697" y1="506.791" x2="602.291" y2="519.018" gradientUnits="userSpaceOnUse">
<stop stop-color="#2251A9"/>
<stop offset="0.17" stop-color="#1D5DB2"/>
<stop offset="0.48" stop-color="#117ECB"/>
<stop offset="0.85" stop-color="#00ADEE"/>
</linearGradient>
<linearGradient id="paint3_linear" x1="311.542" y1="533.825" x2="513.142" y2="541.581" gradientUnits="userSpaceOnUse">
<stop stop-color="#114C97"/>
<stop offset="0.25" stop-color="#0A76BD"/>
<stop offset="0.53" stop-color="#039EE0"/>
<stop offset="0.68" stop-color="#00ADEE"/>
<stop offset="1" stop-color="#5AC593"/>
</linearGradient>
<linearGradient id="paint4_linear" x1="375.235" y1="517.211" x2="494.223" y2="521.972" gradientUnits="userSpaceOnUse">
<stop stop-color="#2E3191"/>
<stop offset="0.08" stop-color="#2A3B98"/>
<stop offset="0.71" stop-color="#0F86D1"/>
<stop offset="1" stop-color="#04A3E7"/>
</linearGradient>
<linearGradient id="paint5_linear" x1="-26.4576" y1="-46.8875" x2="-24.3803" y2="2030.95" gradientUnits="userSpaceOnUse">
<stop stop-color="#45BBB7"/>
<stop offset="1" stop-color="#1DA2E2"/>
</linearGradient>
<linearGradient id="paint6_linear" x1="29.7831" y1="767.423" x2="0.647316" y2="734.029" gradientUnits="userSpaceOnUse">
<stop stop-color="#1B1464"/>
<stop offset="0.07" stop-color="#1D1869"/>
<stop offset="0.4" stop-color="#27267F"/>
<stop offset="0.71" stop-color="#2C2E8D"/>
<stop offset="1" stop-color="#2E3191"/>
</linearGradient>
<linearGradient id="paint7_linear" x1="181.914" y1="50.4946" x2="219.751" y2="155.13" gradientUnits="userSpaceOnUse">
<stop stop-color="#00ADEE"/>
<stop offset="0.14" stop-color="#23B5DC"/>
<stop offset="0.31" stop-color="#46BDC9"/>
<stop offset="0.48" stop-color="#61C3BB"/>
<stop offset="0.65" stop-color="#74C7B0"/>
<stop offset="0.82" stop-color="#80CAAA"/>
<stop offset="1" stop-color="#84CBA8"/>
</linearGradient>
<linearGradient id="paint8_linear" x1="199.888" y1="164.441" x2="226.491" y2="164.441" gradientUnits="userSpaceOnUse">
<stop stop-color="#31B8D4"/>
<stop offset="0.13" stop-color="#3FBBCC"/>
<stop offset="0.5" stop-color="#65C4B9"/>
<stop offset="0.81" stop-color="#7CC9AC"/>
<stop offset="1" stop-color="#84CBA8"/>
</linearGradient>
</defs>
</svg>
