<?xml version="1.0" encoding="UTF-8" standalone="no"?>
<svg
   xmlns:dc="http://purl.org/dc/elements/1.1/"
   xmlns:cc="http://creativecommons.org/ns#"
   xmlns:rdf="http://www.w3.org/1999/02/22-rdf-syntax-ns#"
   xmlns:svg="http://www.w3.org/2000/svg"
   xmlns="http://www.w3.org/2000/svg"
   id="svg1988"
   version="1.1"
   viewBox="0 0 80.336349 11.872481"
   height="11.872481mm"
   width="80.336349mm">
  <defs
     id="defs1982" />
  <metadata
     id="metadata1985">
    <rdf:RDF>
      <cc:Work
         rdf:about="">
        <dc:format>image/svg+xml</dc:format>
        <dc:type
           rdf:resource="http://purl.org/dc/dcmitype/StillImage" />
        <dc:title></dc:title>
      </cc:Work>
    </rdf:RDF>
  </metadata>
  <g
     transform="translate(19.033883,-139.80853)"
     id="layer1">
    <g
       style="display:inline;fill:#000000;fill-opacity:1"
       id="g8289"
       transform="matrix(0.01159422,0,0,-0.01159422,-19.033883,150.93898)">
      <path
         id="path8287"
         d="m 6712,301 -2,-10 -1,10 -153,438 h -87 l 199,-566 v -4 Q 6659,128 6636.5,85.5 6614,43 6591,27 6571,13 6550,9.5 6529,6 6512,6 q -9,0 -23,2.5 -14,2.5 -21,4.5 v -68 q 9,-3 27.5,-6 18.5,-3 31.5,-3 32,0 59,8 27,8 49,24 27,20 54,64.5 27,44.5 42,88.5 l 198,618 h -87 z m -304,137 v 53 q 0,71 -17.5,122.5 -17.5,51.5 -52.5,82.5 -29,28 -71,41 -42,13 -97,13 -28,0 -54,-5 -26,-5 -48,-15 -22,-10 -42,-25 -20,-15 -35,-34 -30,-38 -46.5,-93 -16.5,-55 -16.5,-124 0,-76 21,-133.5 21,-57.5 61,-95.5 41,-41 90,-53.5 49,-12.5 86,-12.5 96,0 146.5,43 50.5,43 70.5,90 l -72,35 q -13,-29 -46,-63 -33,-34 -99,-34 -38,0 -69,14.5 -31,14.5 -53,43.5 -22,28 -33,66 -11,38 -11,84 z m -86,70 h -300 q 6,88 42.5,129.5 36.5,41.5 107.5,41.5 77,0 113,-41.5 36,-41.5 37,-129.5 z M 1218,664 q -33,43 -79.5,65 Q 1092,751 1036,751 979,751 932.5,729 886,707 853,664 822,625 805.5,571 789,517 789,455 q 0,-62 16.5,-116 16.5,-54 47.5,-93 33,-42 79.5,-64 46.5,-22 103.5,-22 56,0 102.5,22 46.5,22 79.5,64 31,39 47.5,93 16.5,54 16.5,116 0,62 -16.5,116 -16.5,54 -47.5,93 z M 1036,230 Q 964,230 923.5,289.5 883,349 883,455 883,561 923.5,620.5 964,680 1036,680 q 71,0 111.5,-59.5 Q 1188,561 1188,455 1188,349 1147.5,289.5 1107,230 1036,230 Z m 445,261 q 16,88 63,130 47,42 126,42 v 84 q -67,0 -110.5,-28 -43.5,-28 -78.5,-90 l -1,-1 1,7 v 103 h -89 V 169 h 89 z m 2181,266 q 0,28 9.5,50 9.5,22 27.5,38 18,15 44,23 26,8 59,8 35,0 66,-10 31,-10 54,-29 22,-17 37.5,-41.5 Q 3975,771 3983,742 l 83,10 q -14,47 -37.5,84 -23.5,37 -56,62.5 -32.5,25.5 -75,39.5 -42.5,14 -92.5,14 -51,0 -95,-15 -44,-15 -76,-44 -32,-28 -48.5,-64.5 Q 3569,792 3569,750 q 0,-45 18.5,-81 18.5,-36 57.5,-64 34,-25 76.5,-42.5 42.5,-17.5 85.5,-32.5 75,-26 135,-58.5 60,-32.5 60,-100.5 0,-31 -10.5,-55.5 Q 3981,291 3962,273 3941,253 3909.5,243.5 3878,234 3837,234 3766,234 3714.5,273.5 3663,313 3634,389 l -85,-22 q 14,-32 37.5,-72.5 23.5,-40.5 57.5,-70.5 37,-33 84,-49.5 47,-16.5 105,-16.5 69,0 120.5,18 51.5,18 85.5,53 36,37 47,80.5 11,43.5 11,75.5 0,48 -20,85.5 -20,37.5 -60,66.5 -36,25 -80,42.5 -44,17.5 -88,32.5 -73,24 -130.5,54 -57.5,30 -56.5,91 z m 575,-88 h -85 v 71 h 85 v 186 h 90 V 740 h 95 v -71 h -95 V 280 q 0,-19 10,-34.5 10,-15.5 55,-15.5 8,0 15.5,0.5 7.5,0.5 14.5,0.5 v -63 l -20,-4 q 0,0 -39,-4 -30,0 -52.5,5 -22.5,5 -38.5,15 -14,9 -24.5,25.5 Q 4237,222 4237,248 v 76 143.5 139 z M 5774,280 q 0,-19 11.5,-34.5 11.5,-15.5 56.5,-15.5 7,0 14.5,0.5 7.5,0.5 15.5,0.5 v -63 l -20,-4 q 0,0 -40,-4 -30,0 -52.5,4.5 -22.5,4.5 -37.5,15.5 -15,9 -26,25.5 -11,16.5 -11,42.5 v 712 h 89 z M 2967,591 q 23,24 68.5,55.5 45.5,31.5 91.5,31.5 47,0 68.5,-23.5 Q 3217,631 3217,579 V 168 h 89 v 414 q 0,92 -54.5,129.5 Q 3197,749 3135,749 q -44,0 -87,-22.5 -43,-22.5 -81,-64.5 v 0 0 76 h -89 V 168 h 89 z M 2641,239 q 2,-24 11,-38.5 9,-14.5 27,-24.5 18,-9 42,-8.5 24,0.5 37,3.5 v 60 q -15,1 -24,8.5 -9,7.5 -9,26.5 v 275 l -1,36 q 0,43 -16.5,76.5 -16.5,33.5 -48.5,56.5 -26,19 -61.5,29 -35.5,10 -75.5,10 -94,0 -143.5,-43.5 Q 2329,662 2310,627 l 72,-38 q 8,20 38.5,54.5 30.5,34.5 103.5,34.5 56,0 85,-25 29,-25 29,-75 v -21 l -0.5,-3 q 0,0 -1.5,-5 -2,-2 -8.5,-4 -6.5,-2 -20.5,-4 -80,-9 -135,-23.5 -55,-14.5 -94,-39.5 -42,-27 -67,-65.5 -25,-38.5 -25,-90.5 0,-37 16,-68 16,-31 40,-54 22,-20 51,-31 29,-11 62,-11 71,-3 117,22 46,25 69,59 z m -1,95 q -3,-37 -59.5,-73 -56.5,-36 -113.5,-33 -31,2 -57.5,25.5 -26.5,23.5 -29.5,65.5 -5,69 48.5,102.5 53.5,33.5 170.5,46.5 8,0 20.5,3 12.5,3 20.5,7 z m 2223,-95 q 2,-24 11,-38.5 9,-14.5 28,-24.5 17,-9 41.5,-8.5 24.5,0.5 36.5,3.5 v 60 q -15,1 -24,8.5 -9,7.5 -9,26.5 v 275 36 q 0,43 -16.5,76.5 -16.5,33.5 -48.5,56.5 -27,19 -62,29 -35,10 -75,10 -95,0 -144,-43.5 -49,-43.5 -68,-78.5 l 72,-38 q 7,20 38,54.5 31,34.5 103,34.5 57,0 85.5,-25 28.5,-25 28.5,-75 v -21 -3 q 0,0 -1,-5 -2,-2 -8.5,-4 -6.5,-2 -21.5,-4 -79,-9 -134,-23.5 Q 4640,503 4601,478 4558,451 4533.5,412.5 4509,374 4509,322 q 0,-37 16,-68 16,-31 39,-54 22,-20 51.5,-31 29.5,-11 62.5,-11 70,-3 116.5,22 46.5,25 68.5,59 z m 0,95 q -3,-37 -59.5,-73 -56.5,-36 -113.5,-33 -31,2 -57.5,25.5 -26.5,23.5 -29.5,65.5 -6,69 48,102.5 54,33.5 170,46.5 9,0 21.5,3 12.5,3 20.5,7 z M 337,321 148,941 H 0 V 169 h 89 v 706 l 2,-2 212,-704 h 69 l 212,704 2,2 V 169 h 89 V 941 H 527 L 338,321 v -4 z m 4853,270 q 23,24 68.5,55.5 45.5,31.5 91.5,31.5 46,0 67.5,-23.5 Q 5439,631 5439,579 V 168 h 90 v 414 q 0,92 -54.5,129.5 Q 5420,749 5358,749 q -44,0 -87,-22.5 -43,-22.5 -81,-64.5 v 0 76 h -89 V 168 h 89 z m -3081,147 -19,-60 q -24,32 -58,51.5 -34,19.5 -85,19.5 -37,0 -80,-14 -43,-14 -79,-48 -36,-34 -59.5,-90.5 Q 1705,540 1705,454 q 0,-82 23.5,-138.5 23.5,-56.5 59,-91 35.5,-34.5 77.5,-50 42,-15.5 78,-15.5 42,0 79,21 37,21 63,55 l 4,2 V 129 Q 2089,72 2048,39.5 2007,7 1954,7 q -51,0 -96,9 -45,9 -82,27 v -78 q 31,-13 77,-21 46,-8 90,-8 59,0 103,15.5 44,15.5 73,44 29,28.5 43,67.5 14,39 14,86 V 738 Z M 2089,334 Q 2072,285 2030.5,257.5 1989,230 1954,230 1885,230 1841.5,280.5 1798,331 1798,459 q 0,108 41,164 41,56 115,56 38,0 71,-17.5 33,-17.5 64,-56.5 z"
         style="fill:#000000;fill-opacity:1" />
    </g>
  </g>
</svg>
