<svg xmlns="http://www.w3.org/2000/svg" viewBox="0 0 207.6 45"><defs><style>.a{fill:#4f1e1b;}.b{fill:#7e1a16;}.c{fill:#b51b1a;}</style></defs><title>queryclick_logo</title><path class="a" d="M71.2,26.8l-1.9-1.7a9.2,9.2,0,0,1-5,1.4,8.6,8.6,0,0,1-8.9-8.7h0a8.9,8.9,0,0,1,17.9,0h0a8.5,8.5,0,0,1-1.5,4.8l1.7,1.5Zm-1.8-8.9a5.1,5.1,0,0,0-5.1-5.3,5,5,0,0,0-5,5.2h0a5.1,5.1,0,0,0,5.1,5.3,5.4,5.4,0,0,0,2.2-.5l-2.7-2.3,2.4-2.6L69,20.2a5.6,5.6,0,0,0,.5-2.3h0Z" transform="translate(-0.2)"/><path class="a" d="M83,26.5c-4.5,0-7.3-2.5-7.3-7.5V9.4h3.7V19c0,2.7,1.4,4.2,3.6,4.2s3.6-1.4,3.6-4V9.4h3.7v9.5C90.4,24,87.6,26.5,83,26.5Z" transform="translate(-0.2)"/><path class="a" d="M93.2,26.3V9.4h12.7v3.3h-9v3.4h7.9v3.3H96.8V23H106v3.3H93.2Z" transform="translate(-0.2)"/><path class="a" d="M118.8,26.3l-3.6-5.4h-2.9v5.4h-3.7V9.4h7.7c4,0,6.3,2.1,6.3,5.6h0a5.2,5.2,0,0,1-3.6,5.2l4.1,6h-4.3Zm0.1-11.1c0-1.6-1.1-2.4-2.9-2.4h-3.7v4.8h3.8c1.8,0,2.8-1,2.8-2.4h0Z" transform="translate(-0.2)"/><path class="a" d="M133.2,19.6v6.7h-3.7V19.6L123,9.4h4.3l4,6.8,4.1-6.8h4.2Z" transform="translate(-0.2)"/><path class="a" d="M147.8,26.6a8.4,8.4,0,0,1-8.4-8.7h0a8.5,8.5,0,0,1,8.4-8.7,8.9,8.9,0,0,1,6.5,2.7l-0.9.9a7.7,7.7,0,0,0-5.7-2.5,7.2,7.2,0,0,0-7.1,7.5h0a7.3,7.3,0,0,0,7.1,7.6,7.7,7.7,0,0,0,5.8-2.6l0.8,0.8A8.9,8.9,0,0,1,147.8,26.6Z" transform="translate(-0.2)"/><path class="a" d="M157.7,26.3V9.4H159V25.1h9.9v1.2H157.7Z" transform="translate(-0.2)"/><path class="a" d="M171.7,26.3V9.4H173V26.3h-1.2Z" transform="translate(-0.2)"/><path class="a" d="M183.9,26.6a8.4,8.4,0,0,1-8.4-8.7h0A8.5,8.5,0,0,1,184,9.1a8.9,8.9,0,0,1,6.5,2.7l-0.9.9a7.7,7.7,0,0,0-5.7-2.5,7.2,7.2,0,0,0-7.1,7.5h0a7.3,7.3,0,0,0,7.1,7.6,7.7,7.7,0,0,0,5.8-2.6l0.8,0.8A8.9,8.9,0,0,1,183.9,26.6Z" transform="translate(-0.2)"/><path class="a" d="M205.8,26.3l-6.9-8.5L194.7,22v4.3h-1.3V9.4h1.3V20.5L205.4,9.4h1.7l-7.4,7.4,7.7,9.4h-1.6Z" transform="translate(-0.2)"/><path class="b" d="M22.7,0A22.5,22.5,0,1,0,45.2,22.5,22.5,22.5,0,0,0,22.7,0Zm0,43.1A20.6,20.6,0,1,1,43.3,22.5,20.7,20.7,0,0,1,22.7,43.1Z" transform="translate(-0.2)"/><path class="c" d="M18.8,17.2a5,5,0,0,0-5.1,5.3h0a5.1,5.1,0,0,0,7,4.9L18.3,25l2.6-2.6,2.6,2.6a5.6,5.6,0,0,0,.5-2.3h0A5.1,5.1,0,0,0,18.8,17.2Z" transform="translate(-0.2)"/><path class="c" d="M22.7,3.7A18.8,18.8,0,1,0,41.5,22.5,18.8,18.8,0,0,0,22.7,3.7Zm5.5,27.5A8.7,8.7,0,0,1,23.6,30a9.3,9.3,0,0,1-4.8,1.3,8.6,8.6,0,0,1-8.9-8.7h0a8.7,8.7,0,0,1,9-8.7A9.3,9.3,0,0,1,23.6,15a9,9,0,0,1,4.7-1.3A8.7,8.7,0,0,1,35,16.3l-2.4,2.7a6.2,6.2,0,0,0-4.3-1.9,4.7,4.7,0,0,0-1.9.4,8.6,8.6,0,0,1,1.5,4.9h0a8.7,8.7,0,0,1-1.5,4.9,4.8,4.8,0,0,0,1.9.4,6.1,6.1,0,0,0,4.4-2l2.4,2.4A8.6,8.6,0,0,1,28.2,31.2Z" transform="translate(-0.2)"/><path class="b" d="M58.1,34.8H56.8v2H56.1V31.3h2.1A1.8,1.8,0,0,1,60.3,33,1.9,1.9,0,0,1,58.1,34.8Zm0.1-3H56.8v2.4h1.4A1.3,1.3,0,0,0,59.6,33,1.3,1.3,0,0,0,58.2,31.8Z" transform="translate(-0.2)"/><path class="b" d="M67.2,31.8H63.9v1.9h3v0.6h-3v1.9h3.4v0.6h-4V31.3h4v0.6Z" transform="translate(-0.2)"/><path class="b" d="M74.2,36.8l-1.6-2.2H71v2.2H70.4V31.3h2.4a1.7,1.7,0,0,1,2,1.7,1.6,1.6,0,0,1-1.5,1.6L75,36.8H74.2Zm-1.5-5H71v2.2h1.7a1.2,1.2,0,0,0,1.4-1.1A1.2,1.2,0,0,0,72.7,31.8Z" transform="translate(-0.2)"/><path class="b" d="M81.9,31.8H78.5v2h3v0.6h-3v2.4H77.9V31.3h4v0.6Z" transform="translate(-0.2)"/><path class="b" d="M87.5,36.9A2.9,2.9,0,1,1,90.3,34,2.8,2.8,0,0,1,87.5,36.9Zm0-5.2A2.2,2.2,0,0,0,85.3,34a2.2,2.2,0,0,0,2.2,2.3A2.2,2.2,0,0,0,89.7,34,2.2,2.2,0,0,0,87.5,31.7Z" transform="translate(-0.2)"/><path class="b" d="M97.3,36.8l-1.6-2.2H94.1v2.2H93.5V31.3h2.4a1.7,1.7,0,0,1,2,1.7,1.6,1.6,0,0,1-1.5,1.6l1.7,2.3H97.3Zm-1.5-5H94.1v2.2h1.7a1.2,1.2,0,0,0,1.4-1.1A1.2,1.2,0,0,0,95.8,31.8Z" transform="translate(-0.2)"/><path class="b" d="M103.7,35.3h0l-2-3v4.5H101V31.3h0.6l2,3,2-3h0.6v5.5h-0.6V32.3Z" transform="translate(-0.2)"/><path class="b" d="M114.9,36.8h-0.7l-0.6-1.5h-3l-0.7,1.5h-0.6l2.5-5.6h0.6Zm-2.8-4.9-1.3,2.8h2.5Z" transform="translate(-0.2)"/><path class="b" d="M121.9,31.3h0.6v5.5H122l-3.6-4.5v4.5h-0.6V31.3h0.6l3.5,4.4V31.3Z" transform="translate(-0.2)"/><path class="b" d="M128.4,36.9a2.9,2.9,0,0,1,0-5.7,2.9,2.9,0,0,1,2.2.9l-0.4.5a2.4,2.4,0,0,0-1.7-.8,2.3,2.3,0,0,0,0,4.6,2.4,2.4,0,0,0,1.8-.8l0.4,0.4A2.9,2.9,0,0,1,128.4,36.9Z" transform="translate(-0.2)"/><path class="b" d="M137.6,31.8h-3.4v1.9h3v0.6h-3v1.9h3.4v0.6h-4V31.3h4v0.6Z" transform="translate(-0.2)"/><path class="b" d="M147.5,35.3h0l-2-3v4.5h-0.6V31.3h0.6l2,3,2-3h0.6v5.5h-0.6V32.3Z" transform="translate(-0.2)"/><path class="b" d="M158.7,36.8h-0.7l-0.6-1.5h-3l-0.7,1.5h-0.6l2.5-5.6h0.6Zm-2.8-4.9-1.3,2.8h2.5Z" transform="translate(-0.2)"/><path class="b" d="M165.5,36.8l-1.6-2.2h-1.6v2.2h-0.6V31.3H164a1.7,1.7,0,0,1,2,1.7,1.6,1.6,0,0,1-1.5,1.6l1.7,2.3h-0.8Zm-1.5-5h-1.7v2.2H164a1.2,1.2,0,0,0,1.4-1.1A1.2,1.2,0,0,0,164,31.8Z" transform="translate(-0.2)"/><path class="b" d="M173.9,36.8h-0.8L171,34.1l-1.2,1.2v1.5h-0.6V31.3h0.6v3.3l3.2-3.3h0.8l-2.4,2.4Z" transform="translate(-0.2)"/><path class="b" d="M180.7,31.8h-3.4v1.9h3v0.6h-3v1.9h3.4v0.6h-4V31.3h4v0.6Z" transform="translate(-0.2)"/><path class="b" d="M185.9,36.8h-0.6v-5h-1.9V31.3h4.4v0.6h-1.9v5Z" transform="translate(-0.2)"/><path class="b" d="M191.5,31.3v5.5h-0.6V31.3h0.6Z" transform="translate(-0.2)"/><path class="b" d="M199,31.3h0.6v5.5h-0.5l-3.6-4.5v4.5h-0.6V31.3h0.6l3.5,4.4V31.3Z" transform="translate(-0.2)"/><path class="b" d="M205.6,36.9a2.7,2.7,0,0,1-2.8-2.9,2.8,2.8,0,0,1,2.8-2.9,2.9,2.9,0,0,1,2.1.7l-0.4.5a2.4,2.4,0,0,0-1.7-.6,2.2,2.2,0,0,0-2.1,2.3,2.1,2.1,0,0,0,2.2,2.3,2.6,2.6,0,0,0,1.6-.6V34.4h-1.7V33.8h2.3V36A3.4,3.4,0,0,1,205.6,36.9Z" transform="translate(-0.2)"/></svg>