<?xml version="1.0" encoding="UTF-8" standalone="no"?>
<svg
   xmlns:dc="http://purl.org/dc/elements/1.1/"
   xmlns:cc="http://creativecommons.org/ns#"
   xmlns:rdf="http://www.w3.org/1999/02/22-rdf-syntax-ns#"
   xmlns:svg="http://www.w3.org/2000/svg"
   xmlns="http://www.w3.org/2000/svg"
   viewBox="0 0 566.93335 81.773331"
   height="81.773331"
   width="566.93335"
   xml:space="preserve"
   id="svg2"
   version="1.1"><metadata
     id="metadata8"><rdf:RDF><cc:Work
         rdf:about=""><dc:format>image/svg+xml</dc:format><dc:type
           rdf:resource="http://purl.org/dc/dcmitype/StillImage" /><dc:title></dc:title></cc:Work></rdf:RDF></metadata><defs
     id="defs6" /><g
     transform="matrix(1.3333333,0,0,-1.3333333,0,81.773333)"
     id="g10"><g
       transform="scale(0.1)"
       id="g12"><path
         id="path14"
         style="fill:#2151a8;fill-opacity:1;fill-rule:nonzero;stroke:none"
         d="m 339.047,165.984 c 0,-27.285 -6.645,-50.64 -19.926,-70.0856 C 305.844,76.4648 286.215,61.7305 260.266,51.7109 234.301,41.6914 202.73,36.6602 165.543,36.6602 c -35.5,0 -65.9297,5.4492 -91.2852,16.3007 C 48.9063,63.8398 30.1914,77.4219 18.1133,93.7109 6.03906,110.027 0,126.379 0,142.793 c 0,10.867 3.86328,20.187 11.5977,27.91 7.7187,7.715 17.5,11.582 29.3359,11.582 10.3789,0 18.3477,-2.527 23.9062,-7.597 5.5547,-5.071 10.8672,-12.2 15.9415,-21.368 10.1406,-17.644 22.2777,-30.808 36.4027,-39.5 14.125,-8.691 33.379,-13.031 57.773,-13.031 19.805,0 36.043,4.414 48.727,13.234 12.668,8.797 19.011,18.879 19.011,30.247 0,17.382 -6.582,30.054 -19.742,38.015 -13.164,7.969 -34.84,15.574 -65.019,22.832 -34.047,8.449 -61.7621,17.324 -83.1293,26.613 -21.3789,9.297 -38.457,21.559 -51.2617,36.766 -12.7969,15.215 -19.19144,33.914 -19.19144,56.145 0,19.789 5.91794,38.511 17.74614,56.14 11.832,17.633 29.2812,31.692 52.3398,42.199 23.0625,10.512 50.8945,15.75 83.4965,15.75 25.597,0 48.589,-2.656 69.004,-7.953 20.402,-5.324 37.433,-12.453 51.074,-21.382 13.644,-8.93 24.027,-18.836 31.148,-29.707 7.129,-10.86 10.695,-21.489 10.695,-31.879 0,-11.332 -3.808,-20.645 -11.414,-27.887 -7.613,-7.242 -18.418,-10.859 -32.421,-10.859 -10.145,0 -18.778,2.894 -25.899,8.687 -7.129,5.789 -15.273,14.492 -24.453,26.09 -7.484,9.652 -16.297,17.387 -26.438,23.176 -10.148,5.793 -23.91,8.687 -41.296,8.687 -17.875,0 -32.723,-3.801 -44.551,-11.402 -11.836,-7.602 -17.7463,-17.082 -17.7463,-28.442 0,-10.375 4.3399,-18.886 13.0353,-25.543 8.691,-6.625 20.406,-12.121 35.137,-16.468 14.722,-4.344 35.007,-9.649 60.847,-15.926 30.664,-7.5 55.731,-16.43 75.168,-26.809 19.434,-10.398 34.168,-22.629 44.192,-36.777 10.015,-14.133 15.031,-30.242 15.031,-48.352" /><path
         id="path16"
         style="fill:#2151a8;fill-opacity:1;fill-rule:nonzero;stroke:none"
         d="M 488.227,382.594 V 96.7969 c 0,-19.8047 -4.711,-34.7656 -14.129,-44.9219 -9.41,-10.1289 -21.368,-15.2148 -35.856,-15.2148 -14.488,0 -26.265,5.2031 -35.316,15.5859 -9.059,10.4023 -13.586,25.2344 -13.586,44.5508 V 379.688 c 0,19.558 4.527,34.3 13.586,44.199 9.051,9.89 20.828,14.843 35.316,14.843 14.488,0 26.446,-4.953 35.856,-14.843 9.418,-9.899 14.129,-23.672 14.129,-41.293 z m -48.903,102.14 c -13.758,0 -25.535,4.235 -35.316,12.684 -9.778,8.445 -14.668,20.395 -14.668,35.855 0,14.008 5.012,25.54 15.031,34.594 10.02,9.059 21.676,13.594 34.953,13.594 12.801,0 24.145,-4.113 34.055,-12.32 9.902,-8.211 14.848,-20.172 14.848,-35.868 0,-15.207 -4.832,-27.105 -14.493,-35.683 -9.656,-8.567 -21.129,-12.856 -34.41,-12.856" /><path
         id="path18"
         style="fill:#2151a8;fill-opacity:1;fill-rule:nonzero;stroke:none"
         d="m 911.609,159.121 c 0,-12.336 -3.679,-25.5 -11.046,-39.492 C 893.191,105.613 881.965,92.2773 866.875,79.6094 851.785,66.9141 832.77,56.7305 809.824,48.9648 786.879,41.2773 761.047,37.4102 732.309,37.4102 c -61.094,0 -108.797,17.7929 -143.086,53.4179 -34.285,35.6249 -51.43,83.3709 -51.43,143.2539 0,40.574 7.844,76.426 23.539,107.582 15.699,31.145 38.398,55.238 68.106,72.258 29.703,17.023 65.203,25.531 106.496,25.531 25.589,0 49.078,-3.73 70.453,-11.234 21.363,-7.473 39.48,-17.133 54.336,-28.973 14.847,-11.824 26.195,-24.445 34.043,-37.84 7.847,-13.41 11.773,-25.91 11.773,-37.492 0,-11.84 -4.41,-21.851 -13.219,-30.066 -8.816,-8.211 -19.507,-12.317 -32.058,-12.317 -8.211,0 -15.032,2.129 -20.461,6.34 -5.442,4.246 -11.539,11.043 -18.301,20.465 -12.074,18.355 -24.687,32.125 -37.848,41.281 -13.168,9.184 -29.886,13.778 -50.172,13.778 -29.214,0 -52.761,-11.403 -70.632,-34.231 -17.871,-22.82 -26.801,-54.035 -26.801,-93.629 0,-18.59 2.289,-35.672 6.879,-51.25 4.59,-15.586 11.23,-28.863 19.922,-39.84 8.691,-10.988 19.199,-19.336 31.511,-24.992 12.317,-5.691 25.836,-8.535 40.575,-8.535 19.796,0 36.765,4.609 50.886,13.789 14.133,9.16 26.633,23.164 37.493,41.992 6.039,11.121 12.55,19.832 19.566,26.082 6.996,6.289 15.57,9.438 25.715,9.438 12.078,0 22.09,-4.602 30.058,-13.762 7.969,-9.18 11.957,-18.965 11.957,-29.336" /><path
         id="path20"
         style="fill:#2151a8;fill-opacity:1;fill-rule:nonzero;stroke:none"
         d="m 1286.54,165.984 c 0,-27.285 -6.64,-50.64 -19.91,-70.0856 -13.29,-19.4336 -32.91,-34.1679 -58.87,-44.1875 -25.96,-10.0195 -57.54,-15.0507 -94.72,-15.0507 -35.5,0 -65.93,5.4492 -91.28,16.3007 -25.358,10.8789 -44.08,24.461 -56.151,40.75 -12.078,16.3161 -18.105,32.6681 -18.105,49.0821 0,10.867 3.863,20.187 11.59,27.91 7.726,7.715 17.508,11.582 29.34,11.582 10.379,0 18.346,-2.527 23.906,-7.597 5.56,-5.071 10.87,-12.2 15.94,-21.368 10.14,-17.644 22.27,-30.808 36.4,-39.5 14.13,-8.691 33.39,-13.031 57.78,-13.031 19.79,0 36.04,4.414 48.72,13.234 12.68,8.797 19.01,18.879 19.01,30.247 0,17.382 -6.58,30.054 -19.74,38.015 -13.16,7.969 -34.83,15.574 -65.02,22.832 -34.05,8.449 -61.76,17.324 -83.13,26.613 -21.37,9.297 -38.452,21.559 -51.253,36.766 -12.805,15.215 -19.199,33.914 -19.199,56.145 0,19.789 5.91,38.511 17.754,56.14 11.824,17.633 29.277,31.692 52.338,42.199 23.06,10.512 50.89,15.75 83.49,15.75 25.6,0 48.6,-2.656 69.01,-7.953 20.4,-5.324 37.43,-12.453 51.07,-21.382 13.64,-8.93 24.03,-18.836 31.15,-29.707 7.12,-10.86 10.68,-21.489 10.68,-31.879 0,-11.332 -3.79,-20.645 -11.4,-27.887 -7.61,-7.242 -18.42,-10.859 -32.42,-10.859 -10.14,0 -18.78,2.894 -25.9,8.687 -7.13,5.789 -15.28,14.492 -24.45,26.09 -7.49,9.652 -16.3,17.387 -26.44,23.176 -10.14,5.793 -23.91,8.687 -41.3,8.687 -17.87,0 -32.72,-3.801 -44.56,-11.402 -11.82,-7.602 -17.74,-17.082 -17.74,-28.442 0,-10.375 4.35,-18.886 13.04,-25.543 8.69,-6.625 20.4,-12.121 35.14,-16.468 14.73,-4.344 35.01,-9.649 60.85,-15.926 30.67,-7.5 55.72,-16.43 75.16,-26.809 19.44,-10.398 34.17,-22.629 44.19,-36.777 10.02,-14.133 15.03,-30.242 15.03,-48.352" /><path
         id="path22"
         style="fill:#2151a8;fill-opacity:1;fill-rule:nonzero;stroke:none"
         d="m 1586.19,235.535 c -14.49,-5.32 -35.56,-10.926 -63.21,-16.836 -27.65,-5.918 -46.79,-10.254 -57.41,-13.047 -10.63,-2.781 -20.78,-8.211 -30.43,-16.289 -9.66,-8.113 -14.49,-19.402 -14.49,-33.883 0,-14.953 5.67,-27.699 17.02,-38.195 11.36,-10.508 26.2,-15.793 44.56,-15.793 19.56,0 37.61,4.289 54.15,12.871 16.54,8.586 28.67,19.629 36.41,33.149 8.93,14.976 13.4,39.605 13.4,73.894 z m 6.52,-143.0858 c -23.91,-18.5898 -47.04,-32.539 -69.37,-41.8359 -22.33,-9.2852 -47.4,-13.9531 -75.17,-13.9531 -25.35,0 -47.62,5.0312 -66.82,15.0507 -19.2,10.0196 -34,23.6016 -44.37,40.7383 -10.39,17.1408 -15.58,35.7538 -15.58,55.7928 0,27.039 8.57,50.098 25.72,69.168 17.14,19.094 40.69,31.887 70.63,38.418 6.28,1.449 21.86,4.707 46.73,9.777 24.87,5.059 46.19,9.708 63.93,13.934 17.75,4.238 37.01,9.367 57.78,15.402 -1.21,26.075 -6.46,45.207 -15.76,57.403 -9.29,12.195 -28.55,18.293 -57.78,18.293 -25.11,0 -44,-3.508 -56.68,-10.508 -12.68,-7 -23.55,-17.512 -32.61,-31.512 -9.05,-14.015 -15.45,-23.246 -19.19,-27.711 -3.75,-4.468 -11.77,-6.695 -24.09,-6.695 -11.11,0 -20.71,3.555 -28.8,10.676 -8.09,7.129 -12.13,16.25 -12.13,27.355 0,17.375 6.16,34.289 18.47,50.711 12.32,16.426 31.52,29.942 57.59,40.563 26.09,10.64 58.56,15.937 97.44,15.937 43.47,0 77.64,-5.129 102.52,-15.387 24.87,-10.265 42.44,-26.496 52.71,-48.714 10.26,-22.223 15.39,-51.68 15.39,-88.387 0,-23.176 -0.06,-42.856 -0.18,-59.043 -0.13,-16.176 -0.3,-34.16 -0.55,-53.969 0,-18.582 3.08,-37.969 9.24,-58.133 6.15,-20.1677 9.24,-33.1637 9.24,-38.9567 0,-10.125 -4.77,-19.3633 -14.32,-27.6914 -9.53,-8.3321 -20.34,-12.5117 -32.41,-12.5117 -10.14,0 -20.16,4.7929 -30.07,14.3242 -9.89,9.5429 -20.4,23.3515 -31.51,41.4648" /><path
         id="path24"
         style="fill:#2151a8;fill-opacity:1;fill-rule:nonzero;stroke:none"
         d="m 1848.32,487.996 c 15.7,7.246 30.67,14.488 44.92,21.731 14.25,7.25 25.6,12.562 34.05,15.941 8.45,3.379 15.21,5.078 20.28,5.078 8.45,0 15.76,-2.844 21.92,-8.519 6.16,-5.668 9.23,-12.739 9.23,-21.188 0,-4.828 -1.5,-9.84 -4.53,-15.023 -3,-5.2 -6.21,-8.52 -9.59,-9.977 -31.15,-12.309 -65.44,-21.238 -102.88,-26.801 6.77,-6.273 15.1,-14.605 24.99,-24.992 9.91,-10.387 15.1,-15.941 15.59,-16.664 3.61,-5.066 8.69,-11.344 15.21,-18.832 6.52,-7.496 11.04,-13.344 13.58,-17.566 2.54,-4.231 3.81,-9.368 3.81,-15.395 0,-7.738 -2.91,-14.5 -8.7,-20.293 -5.79,-5.789 -13.28,-8.683 -22.45,-8.683 -9.18,0 -19.51,7.117 -30.98,21.367 -11.47,14.242 -26.26,39.832 -44.37,76.793 -18.35,-33.328 -30.67,-55.301 -36.95,-65.93 -6.27,-10.621 -12.31,-18.656 -18.11,-24.086 -5.8,-5.43 -12.44,-8.144 -19.92,-8.144 -8.93,0 -16.36,3.066 -22.28,9.238 -5.91,6.144 -8.87,12.734 -8.87,19.738 0,6.52 1.2,11.469 3.62,14.848 22.22,30.179 45.39,56.386 69.55,78.601 -20.29,3.149 -38.4,6.645 -54.34,10.508 -15.93,3.863 -32.84,9.535 -50.71,17.027 -2.9,1.45 -5.74,4.766 -8.51,9.957 -2.78,5.2 -4.17,9.954 -4.17,14.309 0,8.449 3.08,15.52 9.24,21.188 6.16,5.675 13.22,8.519 21.19,8.519 5.8,0 13.05,-1.762 21.73,-5.258 8.7,-3.5 19.74,-8.578 33.15,-15.207 13.4,-6.648 28.67,-14.07 45.82,-22.285 -3.14,15.219 -5.73,32.664 -7.79,52.348 -2.05,19.676 -3.07,33.133 -3.07,40.383 0,8.933 2.83,16.601 8.5,23.007 5.68,6.399 12.98,9.606 21.92,9.606 8.69,0 15.88,-3.207 21.55,-9.606 5.68,-6.406 8.52,-14.91 8.52,-25.539 0,-2.906 -0.43,-8.629 -1.27,-17.207 -0.85,-8.57 -2.06,-18.957 -3.63,-31.148 -1.56,-12.199 -3.32,-26.149 -5.25,-41.844" /><path
         id="path26"
         style="fill:#2151a8;fill-opacity:1;fill-rule:nonzero;stroke:none"
         d="m 2071.63,236.824 c 0,-5.926 0,-9.82 -2.41,-12.039 -1.29,-1.301 -3.52,-2.597 -6.48,-2.597 -2.23,0 -4.63,0.925 -6.31,2.597 -2.6,2.219 -2.6,5.93 -2.6,12.039 v 106.063 h -30.04 c -5.37,0 -8.52,0 -10.37,2.039 -1.31,1.301 -2.42,3.148 -2.42,5.008 0,1.668 1.11,3.711 2.23,5.004 2.04,2.23 5.19,2.23 10.56,2.23 h 78.07 c 5.37,0 8.53,0 10.39,-2.23 1.29,-1.293 2.41,-3.153 2.41,-5.004 0,-1.672 -1.12,-3.707 -2.41,-5.008 -2.04,-2.039 -5.02,-2.039 -10.39,-2.039 h -30.23 V 236.824" /><path
         id="path28"
         style="fill:#2151a8;fill-opacity:1;fill-rule:nonzero;stroke:none"
         d="m 2207.4,235.535 c 0,-6.121 0,-8.164 -1.67,-10.379 -1.31,-1.672 -4.08,-2.968 -6.68,-2.968 -2.77,0 -5.75,1.472 -7.04,4.464 -0.76,1.844 -0.76,3.883 -0.76,8.883 v 46.723 c 0,5.371 -0.36,13.719 -2.96,18.172 -3.51,5.933 -10.37,9.082 -17.05,9.082 -9.09,0 -18.54,-5.004 -22.81,-13.164 -2.59,-4.817 -4.45,-8.899 -4.45,-28.926 v -32.078 c 0,-5.364 0,-8.52 -2.23,-10.735 -1.11,-0.949 -3.16,-2.421 -6.11,-2.421 -7.79,0 -7.79,7.226 -7.79,13.347 v 110.5 c 0,6.309 0,13.356 7.79,13.356 8.34,0 8.34,-6.864 8.34,-13.356 V 306.73 c 6.67,8.34 14.83,15.946 30.22,15.946 11.68,0 20.2,-4.27 26.52,-11.68 6.68,-7.601 6.68,-19.836 6.68,-24.836 v -50.625" /><path
         id="path30"
         style="fill:#2151a8;fill-opacity:1;fill-rule:nonzero;stroke:none"
         d="m 2297.72,280.41 c -0.38,5.371 -0.76,11.121 -4.82,18.156 -4.08,7.047 -11.68,12.247 -22.27,12.247 -12.96,0 -20.19,-7.977 -23.73,-14.465 -3.15,-5.743 -3.88,-11.66 -4.44,-15.938 z m -55.44,-11.125 c 0.56,-25.777 14.82,-35.222 30.02,-35.222 15.97,0 21.53,8.691 27.08,17.238 1.11,1.679 2.97,4.82 6.86,4.82 3.52,0 6.13,-2.969 6.13,-6.121 0,-2.969 -1.69,-6.121 -3.16,-8.535 -4.26,-7.039 -13.71,-19.277 -37.65,-19.277 -31.51,0 -45.8,22.058 -45.8,50.429 0,27.813 14.48,50.059 45.44,50.059 38.01,0 43.02,-34.68 43.02,-43.008 0,-10.383 -7.8,-10.383 -14.28,-10.383 h -57.66" /><path
         id="path32"
         style="fill:#2151a8;fill-opacity:1;fill-rule:nonzero;stroke:none"
         d="m 2428.47,222.004 c -12.6,0 -27.83,2.781 -37.82,12.976 -7.42,7.598 -11.86,18.348 -11.86,26.321 0,3.902 3.33,7.605 7.8,7.605 4.98,0 6.12,-2.961 9.25,-11.672 2.24,-6.121 7.61,-21.699 31.51,-21.699 16.52,0 33.01,8.535 33.01,24.848 0,17.246 -17.43,21.316 -26.71,23.355 -24.45,5.383 -30.77,7.051 -38.91,13.352 -4.65,3.699 -12.44,11.68 -12.44,25.953 0,24.477 21.32,36.348 45.24,36.348 13.74,0 31.53,-3.528 40.43,-18.911 2.41,-4.273 4.28,-9.644 4.28,-13.726 0,-3.895 -2.97,-8.711 -7.98,-8.711 -5.58,0 -7.25,4.633 -8.73,8.891 -1.84,5.382 -3.53,9.457 -9.08,13.546 -4.64,3.333 -11.86,5.372 -19.47,5.372 -17.25,0 -27.62,-10.012 -27.62,-20.954 0,-15.574 16.5,-19.468 29.48,-22.617 21.7,-5.191 29.67,-8.343 36.52,-13.531 8.17,-6.102 12.07,-17.793 12.07,-25.957 0,-22.059 -16.72,-40.789 -48.97,-40.789" /><path
         id="path34"
         style="fill:#2151a8;fill-opacity:1;fill-rule:nonzero;stroke:none"
         d="m 2538.08,222.188 c -25.2,0 -35.03,12.421 -39.66,20.566 -3.34,5.945 -6.89,15.203 -6.89,29.492 0,22.246 9.46,50.43 45.82,50.43 21.89,0 31.34,-9.824 36.89,-18.36 1.67,-2.414 3.34,-5.75 3.34,-8.894 0,-4.082 -3.52,-7.043 -7.22,-7.043 -2.05,0 -4.08,0.195 -7.8,6.484 -2.39,4.082 -8.71,15.207 -25.02,15.207 -18.01,0 -29.85,-14.281 -29.85,-37.074 0,-23.914 11.3,-38.199 29.47,-38.199 10.19,0 19.65,4.82 24.66,13.711 0.74,1.308 4.08,7.43 4.82,8.531 1.29,1.496 2.79,2.961 5.37,2.961 3.54,0 7.42,-2.766 7.42,-7.391 0,-5.39 -10.19,-30.421 -41.35,-30.421" /><path
         id="path36"
         style="fill:#2151a8;fill-opacity:1;fill-rule:nonzero;stroke:none"
         d="m 2638.6,310.07 c -18.34,0 -28.92,-15.019 -28.92,-37.648 0,-22.977 10.76,-37.625 28.92,-37.625 18.19,0 28.57,14.832 28.57,37.625 0,23.926 -11.31,37.648 -28.57,37.648 z m -0.17,-87.882 c -30.22,0 -45.24,22.257 -45.24,48.386 0,33.559 17.05,52.102 45.24,52.102 24.29,0 45.23,-14.84 45.23,-50.254 0,-35.399 -21.12,-50.234 -45.23,-50.234" /><path
         id="path38"
         style="fill:#2151a8;fill-opacity:1;fill-rule:nonzero;stroke:none"
         d="m 2705.58,336.77 c 0,7.043 0,9.082 1.29,11.492 0.92,1.672 3.54,3.711 6.67,3.711 8.17,0 8.17,-7.418 8.17,-14.282 v -17.242 h 8.53 c 3.9,0 10.01,0 10.01,-5.746 0,-4.269 -4.44,-5.933 -9.45,-5.933 h -9.09 v -57.098 c 0,-9.641 0.55,-16.328 9.64,-16.328 1.5,0 8.16,1.121 9.45,1.121 3.16,0 5.57,-2.039 5.57,-5.75 0,-6.301 -8.15,-7.973 -18.17,-7.973 -22.62,0 -22.62,15.766 -22.62,27.629 v 58.399 h -6.14 c -7.21,0 -7.21,5.562 -7.21,5.933 0,5.746 6.68,5.746 8.73,5.746 h 4.62 v 16.321" /><path
         id="path40"
         style="fill:#2151a8;fill-opacity:1;fill-rule:nonzero;stroke:none"
         d="m 2758.82,336.77 c 0,7.043 0,9.082 1.29,11.492 0.93,1.672 3.51,3.711 6.66,3.711 8.16,0 8.16,-7.418 8.16,-14.282 v -17.242 h 8.55 c 3.88,0 10,0 10,-5.746 0,-4.269 -4.45,-5.933 -9.46,-5.933 h -9.09 v -57.098 c 0,-9.641 0.57,-16.328 9.65,-16.328 1.49,0 8.17,1.121 9.45,1.121 3.17,0 5.56,-2.039 5.56,-5.75 0,-6.301 -8.14,-7.973 -18.14,-7.973 -22.63,0 -22.63,15.766 -22.63,27.629 v 58.399 h -6.13 c -7.22,0 -7.22,5.562 -7.22,5.933 0,5.746 6.65,5.746 8.7,5.746 h 4.65 v 16.321" /><path
         id="path42"
         style="fill:#2151a8;fill-opacity:1;fill-rule:nonzero;stroke:none"
         d="m 2825.75,235.344 c 0,-5.188 -0.19,-6.672 -0.74,-7.973 -1.1,-3.512 -4.44,-5.183 -7.42,-5.183 -7.96,0 -8.15,7.402 -8.15,13.156 v 74.168 c 0,5.746 0.19,8.531 2.22,10.754 1.48,1.48 3.52,2.41 6.11,2.41 4.26,0 5.76,-1.676 6.86,-3.711 1.12,-2.035 1.12,-6.305 1.12,-9.453 z m -8.16,103.277 c -5.01,0 -8.89,4.078 -8.89,9.082 0,4.824 3.88,8.899 8.89,8.899 5.01,0 8.89,-4.075 8.89,-8.899 0,-5.004 -3.88,-9.082 -8.89,-9.082" /><path
         id="path44"
         style="fill:#2151a8;fill-opacity:1;fill-rule:nonzero;stroke:none"
         d="m 2883.24,222.188 c -14.46,0 -23.55,3.515 -30.39,10.207 -3.72,3.71 -8.17,9.636 -8.17,16.304 0,3.52 3.16,6.672 7.04,6.672 4.27,0 5.94,-2.961 7.42,-6.289 3.7,-8.547 10.38,-15.41 25.21,-15.41 14.84,0 22.44,7.617 22.44,15.41 0,11.863 -12.42,14.824 -22.06,17.238 -19.86,5.008 -24.84,7.227 -30.23,11.676 -4.45,3.703 -8.35,9.633 -8.35,17.238 0,8.711 5.19,17.797 14.1,22.809 5.37,2.957 12.43,4.633 21.88,4.633 31.52,0 36.53,-19.653 36.53,-23.184 0,-1.289 -0.56,-6.66 -6.86,-6.66 -4.45,0 -5.57,2.031 -7.98,7.227 -2.78,5.925 -9.09,11.117 -21.33,11.117 -11.86,0 -20.96,-4.813 -20.96,-13.528 0,-7.414 5.39,-12.043 27.64,-16.867 14.65,-3.152 34.47,-8.535 34.47,-28.371 0,-8.34 -4.24,-30.222 -40.4,-30.222" /><path
         id="path46"
         style="fill:#2151a8;fill-opacity:1;fill-rule:nonzero;stroke:none"
         d="m 3022.14,235.535 c 0,-6.121 0,-8.164 -1.67,-10.379 -1.29,-1.672 -4.08,-2.968 -6.66,-2.968 -2.79,0 -5.77,1.472 -7.06,4.464 -0.74,1.844 -0.74,3.883 -0.74,8.883 v 46.723 c 0,5.371 -0.37,13.719 -2.98,18.172 -3.5,5.933 -10.37,9.082 -17.03,9.082 -9.1,0 -18.55,-5.004 -22.82,-13.164 -2.6,-4.817 -4.46,-8.899 -4.46,-28.926 v -32.078 c 0,-5.364 0,-8.52 -2.21,-10.735 -1.13,-0.949 -3.16,-2.421 -6.13,-2.421 -7.77,0 -7.77,7.226 -7.77,13.347 v 110.5 c 0,6.309 0,13.356 7.77,13.356 8.34,0 8.34,-6.864 8.34,-13.356 V 306.73 c 6.68,8.34 14.84,15.946 30.24,15.946 11.67,0 20.21,-4.27 26.5,-11.68 6.68,-7.601 6.68,-19.836 6.68,-24.836 v -50.625" /><path
         id="path48"
         style="fill:#2151a8;fill-opacity:1;fill-rule:nonzero;stroke:none"
         d="m 3117.86,236.824 c 0,-6.289 0,-9.629 -2.4,-11.863 -1.28,-1.301 -3.54,-2.773 -6.5,-2.773 -2.22,0 -4.82,0.925 -6.49,2.597 -2.39,2.41 -2.39,5.75 -2.39,12.039 v 107.91 c 0,6.313 0,9.653 2.39,11.868 1.31,1.3 3.34,2.789 6.49,2.789 2.24,0 4.81,-0.93 6.5,-2.789 2.4,-2.215 2.4,-5.743 2.4,-11.868 v -107.91" /><path
         id="path50"
         style="fill:#2151a8;fill-opacity:1;fill-rule:nonzero;stroke:none"
         d="m 3226.52,235.344 c 0,-5.364 0,-8.891 -2.22,-10.93 -1.48,-1.301 -3.32,-2.226 -5.74,-2.226 -2.03,0 -4.26,0.753 -5.93,2.226 -2.21,2.039 -2.21,5.566 -2.21,10.93 v 45.808 c 0,9.453 -0.95,14.637 -2.98,18.157 -3.54,6.121 -10.19,9.277 -16.87,9.277 -9.28,0 -18.55,-5.191 -23.01,-13.352 -2.76,-5 -4.43,-9.074 -4.43,-29.289 v -30.601 c 0,-5.364 -0.18,-8.891 -2.42,-10.93 -1.48,-1.301 -3.35,-2.226 -5.75,-2.226 -2.05,0 -4.26,0.925 -5.75,2.226 -2.23,2.039 -2.23,5.566 -2.23,10.93 v 74.535 c 0,5.191 0,8.527 2.05,10.57 1.11,0.934 3.14,2.227 5.76,2.227 2.95,0 5.54,-1.856 6.29,-3.524 1.47,-2.593 1.67,-5 1.67,-12.98 5,6.488 13.15,16.504 30.41,16.504 11.66,0 20.39,-4.27 27.07,-11.863 6.29,-7.235 6.29,-18.899 6.29,-25.032 v -50.437" /><path
         id="path52"
         style="fill:#2151a8;fill-opacity:1;fill-rule:nonzero;stroke:none"
         d="m 3254.75,329.535 c 0,9.645 1.1,16.129 4.08,20.399 5.55,8.156 15.37,9.457 22.24,9.457 5.76,0 11.13,-1.114 13.52,-2.043 1.12,-0.371 4.27,-1.856 4.27,-5.746 0,-3.34 -2.4,-6.122 -5.37,-6.122 -1.48,0 -7.41,0.93 -8.71,0.93 -12.61,0 -13.92,-7.047 -13.92,-18.359 v -7.602 h 10.03 c 3.89,0 9.82,0 9.82,-5.746 0,-6.117 -6.32,-6.117 -9.82,-6.117 h -10.03 v -73.242 c 0,-5.364 -0.19,-8.891 -2.39,-10.93 -1.12,-1.101 -3.17,-2.226 -5.76,-2.226 -2.06,0 -4.26,0.753 -5.73,2.226 -2.23,2.238 -2.23,5.566 -2.23,10.93 v 73.242 h -8.73 c -1.85,0 -8.89,0 -8.89,6.117 0,5.746 7.04,5.746 9.27,5.746 h 8.35 v 9.086" /><path
         id="path54"
         style="fill:#2151a8;fill-opacity:1;fill-rule:nonzero;stroke:none"
         d="m 3341.33,310.07 c -18.32,0 -28.92,-15.019 -28.92,-37.648 0,-22.977 10.78,-37.625 28.92,-37.625 18.18,0 28.56,14.832 28.56,37.625 0,23.926 -11.3,37.648 -28.56,37.648 z m -0.18,-87.882 c -30.21,0 -45.23,22.257 -45.23,48.386 0,33.559 17.05,52.102 45.23,52.102 24.32,0 45.26,-14.84 45.26,-50.254 0,-35.399 -21.13,-50.234 -45.26,-50.234" /><path
         id="path56"
         style="fill:#2151a8;fill-opacity:1;fill-rule:nonzero;stroke:none"
         d="m 3405.9,312.477 c 0,4.453 0,10.199 7.06,10.199 6.83,0 6.83,-5.746 6.83,-10.199 v -7.414 c 6.52,10.007 11.51,17.613 23.37,17.613 7.99,0 19.1,-4.082 19.1,-10.942 0,-4.632 -4.09,-7.418 -6.49,-7.418 -4.08,0 -6.31,2.786 -13.35,2.786 -17.23,0 -20.4,-18.723 -20.4,-40.782 v -34.867 c 0,-8.14 -5.56,-9.265 -7.96,-9.265 -2.21,0 -4.27,0.753 -5.75,2.226 -2.41,2.039 -2.41,5.371 -2.41,10.93 v 77.133" /><path
         id="path58"
         style="fill:#2151a8;fill-opacity:1;fill-rule:nonzero;stroke:none"
         d="m 3606.9,235.535 c 0,-5.75 0,-8.711 -2.03,-10.926 -1.48,-1.296 -3.34,-2.421 -5.93,-2.421 -8.17,0 -8.17,7.402 -8.17,13.546 v 49.305 c 0,8.527 0,23.547 -17.23,23.547 -7.07,0 -15.41,-3.344 -19.29,-10.02 -4.08,-6.652 -4.27,-12.785 -4.27,-18.351 v -44.68 c 0,-5.75 0,-8.711 -2.05,-10.926 -1.28,-1.125 -3.31,-2.421 -5.91,-2.421 -2.23,0 -4.46,0.925 -6.11,2.421 -2.05,2.215 -2.05,5.176 -2.05,10.926 v 51.367 c 0,6.106 0,21.684 -17.06,21.684 -8.71,0 -16.88,-4.641 -19.84,-11.125 -3.89,-7.59 -4.08,-14.813 -4.08,-23.176 v -38.75 c 0,-5.75 0,-8.711 -2.05,-10.926 -1.29,-1.125 -3.32,-2.421 -5.93,-2.421 -2.21,0 -4.44,0.925 -6.11,2.421 -2.06,2.215 -2.06,5.176 -2.06,10.926 v 73.977 c 0,6.117 0,13.164 7.24,13.164 3.73,0 6.12,-2.781 6.68,-4.821 0.54,-2.039 0.54,-2.968 0.54,-10.753 5.6,8.527 15.41,15.574 29.15,15.574 4.6,0 15.19,-0.742 22.22,-8.16 2.98,-3.153 4.09,-6.118 5.01,-8.715 3.34,5.195 11.69,16.875 29.69,16.875 8.69,0 20.93,-3.149 26.13,-13.539 3.51,-7.235 3.51,-14.086 3.51,-18.715 v -54.887" /><path
         id="path60"
         style="fill:#2151a8;fill-opacity:1;fill-rule:nonzero;stroke:none"
         d="m 3681.1,271.121 c -11.48,-2.586 -20.57,-3.875 -28.18,-5.918 -10.76,-2.957 -12.4,-10.75 -12.4,-14.461 0,-6.672 5,-15.945 18.36,-15.945 10.17,0 23.35,4.266 28.92,13.902 3.7,6.313 4.08,15.012 4.08,25.766 -2.44,-0.918 -5.77,-2.219 -10.78,-3.344 z m -25.94,-48.933 c -21.34,0 -31.16,13.917 -31.16,27.441 0,21.875 20.22,26.144 31.52,28.367 4.28,0.942 23.37,4.262 27.09,5.199 2.75,0.743 4.8,1.297 9.07,2.774 -0.36,12.793 -0.74,24.844 -21.89,24.844 -11.12,0 -22.98,-3.34 -27.07,-13.352 -1.67,-4.266 -2.95,-7.793 -7.95,-7.793 -3.91,0 -7.25,2.98 -7.25,6.863 0,5.559 6.3,26.145 41.17,26.145 36.73,0 39.12,-17.434 39.12,-39.68 0,-4.82 -0.56,-25.957 -0.56,-30.215 0,-8.902 1.49,-12.965 2.59,-15.957 0.21,-0.918 1.87,-5.371 1.87,-8.328 0,-3.152 -3.54,-6.308 -7.8,-6.308 -6.29,0 -8.89,8.894 -10.74,15.761 -5.01,-4.824 -17.08,-15.761 -38.01,-15.761" /><path
         id="path62"
         style="fill:#2151a8;fill-opacity:1;fill-rule:nonzero;stroke:none"
         d="m 3737.7,336.77 c 0,7.043 0,9.082 1.3,11.492 0.93,1.672 3.53,3.711 6.68,3.711 8.15,0 8.15,-7.418 8.15,-14.282 v -17.242 h 8.52 c 3.91,0 10.02,0 10.02,-5.746 0,-4.269 -4.44,-5.933 -9.45,-5.933 h -9.09 v -57.098 c 0,-9.641 0.56,-16.328 9.66,-16.328 1.46,0 8.14,1.121 9.45,1.121 3.13,0 5.55,-2.039 5.55,-5.75 0,-6.301 -8.17,-7.973 -18.17,-7.973 -22.62,0 -22.62,15.766 -22.62,27.629 v 58.399 h -6.12 c -7.23,0 -7.23,5.562 -7.23,5.933 0,5.746 6.68,5.746 8.71,5.746 h 4.64 v 16.321" /><path
         id="path64"
         style="fill:#2151a8;fill-opacity:1;fill-rule:nonzero;stroke:none"
         d="m 3804.66,235.344 c 0,-5.188 -0.21,-6.672 -0.74,-7.973 -1.14,-3.512 -4.46,-5.183 -7.43,-5.183 -7.98,0 -8.17,7.402 -8.17,13.156 v 74.168 c 0,5.746 0.19,8.531 2.24,10.754 1.46,1.48 3.49,2.41 6.11,2.41 4.27,0 5.75,-1.676 6.86,-3.711 1.13,-2.035 1.13,-6.305 1.13,-9.453 z m -8.17,103.277 c -5.01,0 -8.91,4.078 -8.91,9.082 0,4.824 3.9,8.899 8.91,8.899 5,0 8.89,-4.075 8.89,-8.899 0,-5.004 -3.89,-9.082 -8.89,-9.082" /><path
         id="path66"
         style="fill:#2151a8;fill-opacity:1;fill-rule:nonzero;stroke:none"
         d="m 3870.28,222.188 c -25.2,0 -35.04,12.421 -39.65,20.566 -3.34,5.945 -6.89,15.203 -6.89,29.492 0,22.246 9.45,50.43 45.8,50.43 21.91,0 31.36,-9.824 36.91,-18.36 1.67,-2.414 3.34,-5.75 3.34,-8.894 0,-4.082 -3.52,-7.043 -7.24,-7.043 -2.03,0 -4.06,0.195 -7.78,6.484 -2.4,4.082 -8.72,15.207 -25.03,15.207 -18,0 -29.85,-14.281 -29.85,-37.074 0,-23.914 11.31,-38.199 29.47,-38.199 10.2,0 19.65,4.82 24.65,13.711 0.76,1.308 4.09,7.43 4.84,8.531 1.29,1.496 2.79,2.961 5.37,2.961 3.51,0 7.42,-2.766 7.42,-7.391 0,-5.39 -10.2,-30.421 -41.36,-30.421" /><path
         id="path68"
         style="fill:#2151a8;fill-opacity:1;fill-rule:nonzero;stroke:none"
         d="m 3963.77,222.188 c -14.46,0 -23.54,3.515 -30.41,10.207 -3.7,3.71 -8.16,9.636 -8.16,16.304 0,3.52 3.15,6.672 7.06,6.672 4.25,0 5.92,-2.961 7.4,-6.289 3.72,-8.547 10.39,-15.41 25.23,-15.41 14.83,0 22.41,7.617 22.41,15.41 0,11.863 -12.41,14.824 -22.05,17.238 -19.82,5.008 -24.83,7.227 -30.22,11.676 -4.46,3.703 -8.33,9.633 -8.33,17.238 0,8.711 5.19,17.797 14.08,22.809 5.39,2.957 12.41,4.633 21.89,4.633 31.51,0 36.52,-19.653 36.52,-23.184 0,-1.289 -0.57,-6.66 -6.88,-6.66 -4.43,0 -5.55,2.031 -7.94,7.227 -2.8,5.925 -9.1,11.117 -21.34,11.117 -11.87,0 -20.94,-4.813 -20.94,-13.528 0,-7.414 5.37,-12.043 27.62,-16.867 14.66,-3.152 34.49,-8.535 34.49,-28.371 0,-8.34 -4.27,-30.222 -40.43,-30.222" /><path
         id="path70"
         style="fill:#2151a8;fill-opacity:1;fill-rule:nonzero;stroke:none"
         d="m 4135.88,330.648 c 0,8.532 -6.66,16.129 -16.51,16.129 -10.02,0 -16.86,-7.972 -16.86,-15.941 0,-5.012 2.77,-10.199 4.63,-12.981 0.92,-1.113 6.85,-9.085 7.8,-10.382 11.3,6.297 20.94,12.609 20.94,23.175 z m -49.7,-68.039 c 0,-13.164 11.14,-27.265 26.89,-27.265 15.2,0 24.29,11.875 27.82,16.511 -9.09,9.266 -25.41,28.555 -32.08,37.442 -11.49,-6.477 -22.63,-13.524 -22.63,-26.688 z m 92.9,-24.66 c 3.52,-3.152 4.83,-4.636 4.83,-7.605 0,-5.383 -4.65,-8.156 -7.81,-8.156 -1.85,0 -3.88,0 -12.95,7.968 -6.52,5.578 -9.48,8.907 -11.32,10.75 -7.04,-8.328 -17.6,-18.718 -38.58,-18.718 -30.39,0 -43.92,22.058 -43.92,38.757 0,21.313 17.43,31.332 31.15,38.926 -8.73,11.125 -14.1,20.395 -14.1,29.481 0,13.718 10.38,30.039 32.8,30.039 23.74,0 32.08,-18.176 32.08,-29.297 0,-14.094 -11.48,-24.11 -27.81,-32.828 17.44,-21.309 19.47,-23.528 27.07,-31.692 1.49,2.961 7.24,16.313 8.73,19.114 1.84,3.515 3.9,4.804 6.47,4.804 4.08,0 7.61,-3.164 7.61,-7.414 0,-6.305 -8.71,-22.625 -11.69,-27.82 7.24,-7.422 7.99,-8.153 17.44,-16.309" /><path
         id="path72"
         style="fill:#2151a8;fill-opacity:1;fill-rule:nonzero;stroke:none"
         d="m 2081.84,36.7109 c -14.65,0 -31.9,3.3399 -43.95,15.7774 -12.24,12.7851 -18.92,33 -18.92,52.8317 0,41.535 25.96,68.618 61.93,68.618 38.94,0 52.29,-31.536 52.29,-38.032 0,-3.328 -2.23,-7.781 -7.23,-7.781 -5.37,0 -8.52,6.121 -11.12,10.938 -3.34,6.484 -8.53,11.855 -14.28,15.39 -3.89,2.41 -9.82,5.195 -18.91,5.195 -18.54,0 -44.5,-11.496 -44.5,-55.07 0,-43.5702 25.59,-53.5819 43.01,-53.5819 19.28,0 32.09,10.5742 38.57,29.1211 1.3,3.5039 2.79,7.5859 7.98,7.5859 3.51,0 7.6,-2.5937 7.6,-7.4218 0,-11.2969 -14.47,-43.5704 -52.47,-43.5704" /><path
         id="path74"
         style="fill:#2151a8;fill-opacity:1;fill-rule:nonzero;stroke:none"
         d="m 2194.4,124.59 c -18.34,0 -28.91,-15.012 -28.91,-37.6369 0,-22.9883 10.76,-37.6289 28.91,-37.6289 18.19,0 28.57,14.836 28.57,37.6289 0,23.9259 -11.3,37.6369 -28.57,37.6369 z m -0.17,-87.8791 c -30.22,0 -45.24,22.2539 -45.24,48.3985 0,33.5506 17.05,52.0976 45.24,52.0976 24.3,0 45.23,-14.836 45.23,-50.2539 0,-35.4101 -21.12,-50.2422 -45.23,-50.2422" /><path
         id="path76"
         style="fill:#2151a8;fill-opacity:1;fill-rule:nonzero;stroke:none"
         d="m 2387.09,50.0781 c 0,-5.7539 0,-8.7187 -2.05,-10.957 -1.47,-1.2891 -3.32,-2.4102 -5.91,-2.4102 -8.17,0 -8.17,7.4102 -8.17,13.5313 v 49.3281 c 0,8.5347 0,23.5427 -17.24,23.5427 -7.06,0 -15.4,-3.328 -19.29,-10.008 -4.08,-6.66 -4.25,-12.792 -4.25,-18.3589 v -44.668 c 0,-5.7539 0,-8.7187 -2.06,-10.957 -1.28,-1.0938 -3.32,-2.4102 -5.93,-2.4102 -2.22,0 -4.45,0.9375 -6.12,2.4102 -2.03,2.2383 -2.03,5.2031 -2.03,10.957 v 51.3599 c 0,6.101 0,21.675 -17.06,21.675 -8.71,0 -16.87,-4.629 -19.82,-11.121 -3.91,-7.59 -4.09,-14.8357 -4.09,-23.1717 V 50.0781 c 0,-5.7539 0,-8.7187 -2.05,-10.957 -1.28,-1.0938 -3.31,-2.4102 -5.93,-2.4102 -2.22,0 -4.45,0.9375 -6.12,2.4102 -2.05,2.2383 -2.05,5.2031 -2.05,10.957 v 73.9649 c 0,6.121 0,13.164 7.24,13.164 3.72,0 6.11,-2.781 6.68,-4.812 0.54,-2.051 0.54,-2.969 0.54,-10.743 5.59,8.512 15.41,15.555 29.13,15.555 4.62,0 15.2,-0.742 22.24,-8.144 2.97,-3.165 4.09,-6.122 5,-8.719 3.34,5.191 11.69,16.863 29.69,16.863 8.69,0 20.94,-3.144 26.13,-13.535 3.52,-7.227 3.52,-14.094 3.52,-18.723 V 50.0781" /><path
         id="path78"
         style="fill:#2151a8;fill-opacity:1;fill-rule:nonzero;stroke:none"
         d="m 2425.89,87.9023 c 0,-32.6484 21.32,-38.5781 31.15,-38.5781 17.99,0 28.93,15.9492 28.93,36.9063 0,28.7305 -16.88,38.3595 -29.49,38.3595 -14.46,0 -30.59,-9.258 -30.59,-36.6877 z m 33.75,49.3047 c 34.85,0 42.84,-32.629 42.84,-51.1718 0,-20.3985 -9.28,-49.3243 -42.46,-49.3243 -21.16,0 -32.28,14.2852 -33.93,16.6954 V 13.5352 c 0,-6.4727 0,-13.5352 -7.98,-13.5352 -8.17,0 -8.17,7.24609 -8.17,13.3594 V 124.414 c 0,5.383 0,8.711 2.23,10.574 1.49,1.477 3.52,2.219 5.57,2.219 7.77,0 7.77,-8.144 7.77,-10.93 v -5.75 c 4.65,5.555 13.74,16.68 34.13,16.68" /><path
         id="path80"
         style="fill:#2151a8;fill-opacity:1;fill-rule:nonzero;stroke:none"
         d="m 2520.48,123.867 c 0,5.559 0,8.906 2.22,10.949 1.5,1.473 3.53,2.391 5.94,2.391 2.03,0 4.27,-0.918 5.75,-2.219 2.22,-2.215 2.22,-5.562 2.22,-11.121 V 78.9922 c 0,-6.5039 0,-13.3555 3.16,-18.543 3.7,-6.125 10.38,-9.6367 17.06,-9.6367 9.26,0 18.72,5.3789 22.98,13.3477 2.24,4.2578 4.27,8.164 4.27,29.6679 v 30.0389 c 0,5.371 0,8.906 2.23,10.949 1.29,1.09 3.13,2.391 5.73,2.391 2.24,0 4.29,-0.918 5.94,-2.219 2.23,-2.215 2.23,-5.562 2.23,-11.121 V 49.5039 c 0,-5.1797 0,-8.5195 -2.23,-10.5586 -1.11,-1.1133 -3.15,-2.2344 -5.56,-2.2344 -3.15,0 -5.75,1.8633 -6.47,3.5313 -1.13,2.5898 -1.33,5 -1.33,13.1641 -4.81,-6.1211 -12.95,-16.6954 -31.13,-16.6954 -9.82,0 -23.18,3.9024 -28.36,14.1016 -4.29,8.3477 -4.65,14.4609 -4.65,21.8828 v 51.1717" /><path
         id="path82"
         style="fill:#2151a8;fill-opacity:1;fill-rule:nonzero;stroke:none"
         d="m 2627.86,151.32 c 0,7.02 0,9.063 1.31,11.473 0.93,1.691 3.53,3.73 6.68,3.73 8.16,0 8.16,-7.429 8.16,-14.304 v -17.231 h 8.51 c 3.91,0 10.04,0 10.04,-5.75 0,-4.258 -4.46,-5.925 -9.47,-5.925 h -9.08 V 66.1992 c 0,-9.6367 0.55,-16.3047 9.64,-16.3047 1.47,0 8.15,1.1016 9.46,1.1016 3.13,0 5.56,-2.043 5.56,-5.7539 0,-6.2969 -8.16,-7.9649 -18.18,-7.9649 -22.63,0 -22.63,15.7579 -22.63,27.6329 v 58.4028 h -6.11 c -7.24,0 -7.24,5.554 -7.24,5.925 0,5.75 6.7,5.75 8.73,5.75 h 4.62 v 16.332" /><path
         id="path84"
         style="fill:#2151a8;fill-opacity:1;fill-rule:nonzero;stroke:none"
         d="m 2744.52,94.9414 c -0.36,5.3716 -0.76,11.1326 -4.82,18.1636 -4.09,7.051 -11.69,12.239 -22.25,12.239 -13,0 -20.21,-7.973 -23.74,-14.465 -3.15,-5.731 -3.9,-11.6798 -4.46,-15.9376 z m -55.45,-11.1211 c 0.56,-25.7851 14.85,-35.2461 30.02,-35.2461 15.98,0 21.53,8.711 27.1,17.2539 1.1,1.6602 2.96,4.8242 6.84,4.8242 3.53,0 6.13,-2.9648 6.13,-6.121 0,-2.961 -1.67,-6.125 -3.15,-8.5352 -4.27,-7.043 -13.72,-19.2852 -37.64,-19.2852 -31.53,0 -45.81,22.0664 -45.81,50.4375 0,27.8126 14.48,50.0586 45.43,50.0586 38.02,0 43.03,-34.668 43.03,-43.0078 0,-10.3789 -7.81,-10.3789 -14.29,-10.3789 h -57.66" /><path
         id="path86"
         style="fill:#2151a8;fill-opacity:1;fill-rule:nonzero;stroke:none"
         d="m 2780.32,127.023 c 0,4.442 0,10.184 7.04,10.184 6.86,0 6.86,-5.742 6.86,-10.184 v -7.414 c 6.49,10 11.5,17.598 23.37,17.598 7.97,0 19.09,-4.082 19.09,-10.93 0,-4.625 -4.08,-7.418 -6.47,-7.418 -4.1,0 -6.32,2.793 -13.36,2.793 -17.26,0 -20.39,-18.742 -20.39,-40.8122 V 45.9961 c 0,-8.1641 -5.58,-9.2852 -7.99,-9.2852 -2.22,0 -4.27,0.7383 -5.74,2.2344 -2.41,2.0391 -2.41,5.3789 -2.41,10.9492 v 77.1285" /><path
         id="path88"
         style="fill:#2151a8;fill-opacity:1;fill-rule:nonzero;stroke:none"
         d="m 2942.03,36.5313 c -12.59,0 -27.82,2.7851 -37.83,12.9726 -7.4,7.6133 -11.85,18.3555 -11.85,26.3242 0,3.9063 3.34,7.6289 7.79,7.6289 5.01,0 6.11,-2.9765 9.24,-11.6875 2.26,-6.1328 7.63,-21.6914 31.55,-21.6914 16.5,0 33,8.5274 33,24.8321 0,17.2461 -17.44,21.3203 -26.71,23.3632 -24.48,5.3786 -30.77,7.0466 -38.94,13.3476 -4.63,3.711 -12.41,11.692 -12.41,25.957 0,24.485 21.32,36.36 45.23,36.36 13.72,0 31.54,-3.528 40.43,-18.938 2.42,-4.258 4.26,-9.629 4.26,-13.711 0,-3.887 -2.95,-8.711 -7.96,-8.711 -5.57,0 -7.24,4.629 -8.73,8.887 -1.85,5.39 -3.51,9.453 -9.09,13.535 -4.63,3.34 -11.85,5.383 -19.45,5.383 -17.26,0 -27.63,-10.012 -27.63,-20.938 0,-15.578 16.51,-19.484 29.46,-22.629 21.7,-5.195 29.69,-8.332 36.55,-13.535 8.16,-6.1247 12.05,-17.7927 12.05,-25.9568 0,-22.0703 -16.7,-40.7929 -48.96,-40.7929" /><path
         id="path90"
         style="fill:#2151a8;fill-opacity:1;fill-rule:nonzero;stroke:none"
         d="m 3051.64,36.7109 c -25.19,0 -35.03,12.4219 -39.66,20.5743 -3.36,5.9492 -6.87,15.2031 -6.87,29.4921 0,22.2537 9.45,50.4297 45.79,50.4297 21.9,0 31.36,-9.812 36.91,-18.348 1.67,-2.414 3.33,-5.754 3.33,-8.91 0,-4.082 -3.51,-7.039 -7.23,-7.039 -2.03,0 -4.09,0.195 -7.79,6.477 -2.41,4.082 -8.71,15.203 -25.02,15.203 -17.99,0 -29.85,-14.258 -29.85,-37.0627 0,-23.914 11.31,-38.2031 29.47,-38.2031 10.2,0 19.65,4.8281 24.66,13.711 0.74,1.3007 4.08,7.4257 4.83,8.5468 1.28,1.4844 2.77,2.9493 5.37,2.9493 3.51,0 7.42,-2.7618 7.42,-7.4141 0,-5.3711 -10.2,-30.4063 -41.36,-30.4063" /><path
         id="path92"
         style="fill:#2151a8;fill-opacity:1;fill-rule:nonzero;stroke:none"
         d="m 3129.37,49.8945 c 0,-5.1992 -0.19,-6.6914 -0.74,-7.9922 -1.12,-3.5234 -4.46,-5.1914 -7.44,-5.1914 -7.94,0 -8.14,7.4102 -8.14,13.1836 v 74.1485 c 0,5.754 0.2,8.535 2.23,10.773 1.49,1.473 3.52,2.391 6.12,2.391 4.26,0 5.75,-1.672 6.85,-3.699 1.12,-2.043 1.12,-6.313 1.12,-9.465 z m -8.18,103.2695 c -4.98,0 -8.87,4.082 -8.87,9.082 0,4.824 3.89,8.899 8.87,8.899 5.01,0 8.92,-4.075 8.92,-8.899 0,-5 -3.91,-9.082 -8.92,-9.082" /><path
         id="path94"
         style="fill:#2151a8;fill-opacity:1;fill-rule:nonzero;stroke:none"
         d="m 3220.79,94.9414 c -0.38,5.3716 -0.76,11.1326 -4.82,18.1636 -4.09,7.051 -11.68,12.239 -22.25,12.239 -12.99,0 -20.21,-7.973 -23.73,-14.465 -3.15,-5.731 -3.91,-11.6798 -4.46,-15.9376 z m -55.45,-11.1211 c 0.57,-25.7851 14.83,-35.2461 30.03,-35.2461 15.97,0 21.52,8.711 27.07,17.2539 1.13,1.6602 2.98,4.8242 6.87,4.8242 3.51,0 6.13,-2.9648 6.13,-6.121 0,-2.961 -1.69,-6.125 -3.16,-8.5352 -4.26,-7.043 -13.72,-19.2852 -37.65,-19.2852 -31.51,0 -45.8,22.0664 -45.8,50.4375 0,27.8126 14.48,50.0586 45.44,50.0586 38.01,0 43.02,-34.668 43.02,-43.0078 0,-10.3789 -7.81,-10.3789 -14.28,-10.3789 h -57.67" /><path
         id="path96"
         style="fill:#2151a8;fill-opacity:1;fill-rule:nonzero;stroke:none"
         d="m 3335.58,49.8945 c 0,-5.4023 0,-8.9101 -2.21,-10.9492 -1.49,-1.2969 -3.34,-2.2344 -5.75,-2.2344 -2.05,0 -4.27,0.7383 -5.96,2.2344 -2.21,2.0391 -2.21,5.5469 -2.21,10.9492 v 45.7813 c 0,9.4722 -0.92,14.6562 -2.98,18.1832 -3.5,6.102 -10.17,9.254 -16.85,9.254 -9.28,0 -18.55,-5.172 -22.99,-13.328 -2.79,-5.027 -4.46,-9.09 -4.46,-29.3045 v -30.586 c 0,-5.4023 -0.19,-8.9101 -2.39,-10.9492 -1.5,-1.2969 -3.34,-2.2344 -5.77,-2.2344 -2.03,0 -4.27,0.9375 -5.75,2.2344 -2.21,2.0391 -2.21,5.5469 -2.21,10.9492 v 74.5195 c 0,5.195 0,8.535 2.04,10.574 1.1,0.918 3.15,2.219 5.73,2.219 2.98,0 5.56,-1.848 6.32,-3.516 1.48,-2.586 1.67,-5 1.67,-12.988 5,6.492 13.17,16.504 30.41,16.504 11.68,0 20.39,-4.258 27.07,-11.863 6.29,-7.231 6.29,-18.899 6.29,-25.031 V 49.8945" /><path
         id="path98"
         style="fill:#2151a8;fill-opacity:1;fill-rule:nonzero;stroke:none"
         d="m 3400.15,36.7109 c -25.23,0 -35.06,12.4219 -39.69,20.5743 -3.32,5.9492 -6.86,15.2031 -6.86,29.4921 0,22.2537 9.46,50.4297 45.82,50.4297 21.86,0 31.31,-9.812 36.87,-18.348 1.69,-2.414 3.36,-5.754 3.36,-8.91 0,-4.082 -3.55,-7.039 -7.25,-7.039 -2.03,0 -4.06,0.195 -7.78,6.477 -2.41,4.082 -8.71,15.203 -25.02,15.203 -18,0 -29.86,-14.258 -29.86,-37.0627 0,-23.914 11.31,-38.2031 29.48,-38.2031 10.19,0 19.65,4.8281 24.66,13.711 0.74,1.3007 4.08,7.4257 4.82,8.5468 1.29,1.4844 2.77,2.9493 5.37,2.9493 3.55,0 7.4,-2.7618 7.4,-7.4141 0,-5.3711 -10.19,-30.4063 -41.32,-30.4063" /><path
         id="path100"
         style="fill:#2151a8;fill-opacity:1;fill-rule:nonzero;stroke:none"
         d="m 3527.56,94.9414 c -0.38,5.3716 -0.76,11.1326 -4.83,18.1636 -4.08,7.051 -11.69,12.239 -22.26,12.239 -12.98,0 -20.2,-7.973 -23.74,-14.465 -3.16,-5.731 -3.88,-11.6798 -4.44,-15.9376 z m -55.45,-11.1211 c 0.54,-25.7851 14.82,-35.2461 30.03,-35.2461 15.95,0 21.51,8.711 27.07,17.2539 1.1,1.6602 2.98,4.8242 6.85,4.8242 3.53,0 6.14,-2.9648 6.14,-6.121 0,-2.961 -1.69,-6.125 -3.16,-8.5352 -4.26,-7.043 -13.74,-19.2852 -37.64,-19.2852 -31.53,0 -45.8,22.0664 -45.8,50.4375 0,27.8126 14.48,50.0586 45.43,50.0586 38.01,0 43.02,-34.668 43.02,-43.0078 0,-10.3789 -7.8,-10.3789 -14.27,-10.3789 h -57.67" /><path
         id="path102"
         style="fill:#2151a8;fill-opacity:1;fill-rule:nonzero;stroke:none"
         d="m 3686.13,91.5938 -24.86,62.1172 -23.92,-62.1172 z m -53.79,-14.2696 -11.48,-29.6679 c -2.79,-7.043 -4.08,-10.9454 -10.2,-10.9454 -4.82,0 -8.52,4.0782 -8.52,7.7813 0,2.793 0.93,5.0117 2.6,9.2851 l 42.07,104.3867 c 4.08,10.383 6.13,15.774 14.65,15.774 3.33,0 7.05,-1.497 8.9,-3.723 1.88,-2.051 4.27,-7.793 5.94,-11.875 l 43.58,-103.8087 c 1.85,-4.6368 2.76,-6.875 2.76,-9.6602 0,-3.5117 -3.51,-8.1602 -8.87,-8.1602 -6.14,0 -7.42,3.9024 -10.4,11.3243 l -11.87,29.289 h -59.16" /><path
         id="path104"
         style="fill:#2151a8;fill-opacity:1;fill-rule:nonzero;stroke:none"
         d="m 3753.83,49.8945 c 0,-5.7734 -0.18,-8.5351 -2.23,-10.7734 -1.29,-1.2891 -3.34,-2.4102 -5.92,-2.4102 -7.98,0 -7.98,7.0508 -7.98,13.1836 V 160.574 c 0,5.754 0,8.711 2.06,10.754 1.28,1.301 3.13,2.61 5.92,2.61 2.03,0 4.27,-0.942 5.92,-2.434 2.05,-2.219 2.23,-5.383 2.23,-10.93 V 49.8945" /><path
         id="path106"
         style="fill:#2151a8;fill-opacity:1;fill-rule:nonzero;stroke:none"
         d="m 3795.57,49.8945 c 0,-5.7734 -0.19,-8.5351 -2.24,-10.7734 -1.31,-1.2891 -3.36,-2.4102 -5.93,-2.4102 -7.99,0 -7.99,7.0508 -7.99,13.1836 V 160.574 c 0,5.754 0,8.711 2.05,10.754 1.29,1.301 3.14,2.61 5.94,2.61 2.03,0 4.26,-0.942 5.93,-2.434 2.05,-2.219 2.24,-5.383 2.24,-10.93 V 49.8945" /><path
         id="path108"
         style="fill:#2151a8;fill-opacity:1;fill-rule:nonzero;stroke:none"
         d="m 3837.28,49.8945 c 0,-5.1992 -0.18,-6.6914 -0.75,-7.9922 -1.1,-3.5234 -4.44,-5.1914 -7.42,-5.1914 -7.94,0 -8.14,7.4102 -8.14,13.1836 v 74.1485 c 0,5.754 0.2,8.535 2.23,10.773 1.49,1.473 3.52,2.391 6.12,2.391 4.25,0 5.75,-1.672 6.85,-3.699 1.11,-2.043 1.11,-6.313 1.11,-9.465 z m -8.17,103.2695 c -5.01,0 -8.87,4.082 -8.87,9.082 0,4.824 3.86,8.899 8.87,8.899 5.01,0 8.92,-4.075 8.92,-8.899 0,-5 -3.91,-9.082 -8.92,-9.082" /><path
         id="path110"
         style="fill:#2151a8;fill-opacity:1;fill-rule:nonzero;stroke:none"
         d="m 3913.51,85.6641 c -11.49,-2.5977 -20.58,-3.8868 -28.18,-5.9297 -10.76,-2.9571 -12.43,-10.75 -12.43,-14.461 0,-6.6679 5.01,-15.9492 18.34,-15.9492 10.2,0 23.37,4.2617 28.93,13.9102 3.72,6.2969 4.08,15.0078 4.08,25.7578 -2.39,-0.918 -5.73,-2.2149 -10.74,-3.3281 z m -25.97,-48.9532 c -21.32,0 -31.13,13.9024 -31.13,27.4493 0,21.875 20.19,26.1328 31.51,28.3671 4.25,0.9297 23.36,4.2579 27.05,5.1875 2.8,0.7422 4.83,1.3086 9.09,2.7812 -0.36,12.793 -0.72,24.848 -21.85,24.848 -11.15,0 -22.99,-3.34 -27.08,-13.352 -1.69,-4.258 -2.97,-7.793 -7.98,-7.793 -3.91,0 -7.23,2.989 -7.23,6.875 0,5.547 6.3,26.133 41.15,26.133 36.73,0 39.14,-17.422 39.14,-39.6797 0,-4.8242 -0.57,-25.9453 -0.57,-30.2109 0,-8.9101 1.5,-12.9922 2.61,-15.957 0.18,-0.9102 1.85,-5.3633 1.85,-8.3321 0,-3.164 -3.52,-6.3164 -7.78,-6.3164 -6.32,0 -8.92,8.9024 -10.76,15.7774 -5.01,-4.832 -17.06,-15.7774 -38.02,-15.7774" /><path
         id="path112"
         style="fill:#2151a8;fill-opacity:1;fill-rule:nonzero;stroke:none"
         d="m 4043.52,49.8945 c 0,-5.4023 0,-8.9101 -2.23,-10.9492 -1.5,-1.2969 -3.34,-2.2344 -5.75,-2.2344 -2.03,0 -4.27,0.7383 -5.94,2.2344 -2.22,2.0391 -2.22,5.5469 -2.22,10.9492 v 45.7813 c 0,9.4722 -0.93,14.6562 -2.97,18.1832 -3.52,6.102 -10.2,9.254 -16.87,9.254 -9.28,0 -18.55,-5.172 -22.99,-13.328 -2.78,-5.027 -4.45,-9.09 -4.45,-29.3045 v -30.586 c 0,-5.4023 -0.18,-8.9101 -2.41,-10.9492 -1.47,-1.2969 -3.34,-2.2344 -5.76,-2.2344 -2.03,0 -4.25,0.9375 -5.73,2.2344 -2.23,2.0391 -2.23,5.5469 -2.23,10.9492 v 74.5195 c 0,5.195 0,8.535 2.06,10.574 1.1,0.918 3.13,2.219 5.73,2.219 2.95,0 5.56,-1.848 6.29,-3.516 1.49,-2.586 1.67,-5 1.67,-12.988 5.03,6.492 13.17,16.504 30.41,16.504 11.69,0 20.4,-4.258 27.1,-11.863 6.29,-7.231 6.29,-18.899 6.29,-25.031 V 49.8945" /><path
         id="path114"
         style="fill:#2151a8;fill-opacity:1;fill-rule:nonzero;stroke:none"
         d="m 4108.06,36.7109 c -25.22,0 -35.05,12.4219 -39.68,20.5743 -3.32,5.9492 -6.86,15.2031 -6.86,29.4921 0,22.2537 9.46,50.4297 45.79,50.4297 21.89,0 31.34,-9.812 36.89,-18.348 1.69,-2.414 3.36,-5.754 3.36,-8.91 0,-4.082 -3.54,-7.039 -7.24,-7.039 -2.03,0 -4.06,0.195 -7.78,6.477 -2.41,4.082 -8.71,15.203 -25.02,15.203 -18.01,0 -29.87,-14.258 -29.87,-37.0627 0,-23.914 11.32,-38.2031 29.49,-38.2031 10.19,0 19.65,4.8281 24.66,13.711 0.74,1.3007 4.08,7.4257 4.82,8.5468 1.29,1.4844 2.77,2.9493 5.37,2.9493 3.52,0 7.4,-2.7618 7.4,-7.4141 0,-5.3711 -10.19,-30.4063 -41.33,-30.4063" /><path
         id="path116"
         style="fill:#2151a8;fill-opacity:1;fill-rule:nonzero;stroke:none"
         d="m 4235.48,94.9414 c -0.38,5.3716 -0.74,11.1326 -4.84,18.1636 -4.08,7.051 -11.66,12.239 -22.25,12.239 -12.96,0 -20.2,-7.973 -23.74,-14.465 -3.14,-5.731 -3.86,-11.6798 -4.44,-15.9376 z m -55.45,-11.1211 c 0.56,-25.7851 14.83,-35.2461 30.04,-35.2461 15.94,0 21.5,8.711 27.06,17.2539 1.12,1.6602 2.97,4.8242 6.87,4.8242 3.52,0 6.12,-2.9648 6.12,-6.121 0,-2.961 -1.67,-6.125 -3.14,-8.5352 -4.27,-7.043 -13.74,-19.2852 -37.65,-19.2852 -31.52,0 -45.79,22.0664 -45.79,50.4375 0,27.8126 14.46,50.0586 45.42,50.0586 38.02,0 43.01,-34.668 43.01,-43.0078 0,-10.3789 -7.78,-10.3789 -14.26,-10.3789 h -57.68" /></g></g></svg>